<svg width="25" height="24" viewBox="0 0 25 24" fill="none" xmlns="http://www.w3.org/2000/svg">
<path d="M10.0489 20.7501C10.9883 20.7501 11.7499 19.9886 11.7499 19.0491C11.7499 18.1097 10.9883 17.3481 10.0489 17.3481C9.10946 17.3481 8.3479 18.1097 8.3479 19.0491C8.3479 19.9886 9.10946 20.7501 10.0489 20.7501Z" stroke="#DE2348" stroke-width="1.5" stroke-linecap="round" stroke-linejoin="round"/>
<path d="M17.46 20.7501C18.3995 20.7501 19.161 19.9886 19.161 19.0491C19.161 18.1097 18.3995 17.3481 17.46 17.3481C16.5206 17.3481 15.759 18.1097 15.759 19.0491C15.759 19.9886 16.5206 20.7501 17.46 20.7501Z" stroke="#DE2348" stroke-width="1.5" stroke-linecap="round" stroke-linejoin="round"/>
<path d="M6.106 5.555L8.116 11.919C8.425 12.897 8.579 13.386 8.876 13.748C9.136 14.068 9.475 14.315 9.858 14.468C10.293 14.641 10.805 14.641 11.831 14.641H15.686C16.712 14.641 17.224 14.641 17.658 14.468C18.042 14.315 18.38 14.068 18.641 13.748C18.937 13.386 19.091 12.897 19.401 11.919L19.81 10.623L20.05 9.857L20.381 8.807C20.4991 8.4325 20.5274 8.03544 20.4634 7.648C20.3995 7.26055 20.2452 6.89361 20.013 6.57691C19.7809 6.26021 19.4774 6.00266 19.1271 5.82511C18.7768 5.64757 18.3897 5.55503 17.997 5.555H6.106ZM6.106 5.555L6.095 5.518C6.05277 5.37656 6.00608 5.23649 5.955 5.098C5.75255 4.58554 5.40923 4.14082 4.96473 3.81523C4.52022 3.48963 3.99266 3.29645 3.443 3.258C3.34 3.25 3.227 3.25 3 3.25" stroke="#DE2348" stroke-width="1.5" stroke-linecap="round" stroke-linejoin="round"/>
</svg>
