<svg width="24" height="24" viewBox="0 0 24 24" fill="none" xmlns="http://www.w3.org/2000/svg">
<g clip-path="url(#clip0_413_1850)">
<path d="M6.06329 8.9029C5.55456 10.0983 5.40574 11.4162 5.63506 12.695C5.86438 13.9737 6.46188 15.1578 7.35429 16.1019L5.46279 20.5264C1.56079 17.5464 0.184293 12.2994 2.11179 7.7839C4.44279 2.3239 10.7588 -0.213097 16.2198 2.1179C21.6808 4.4489 24.2163 10.7649 21.8858 16.2249C19.9583 20.7399 15.2163 23.3759 10.3658 22.6194L12.2528 18.1929C13.5519 18.1842 14.8202 17.7966 15.9022 17.0777C16.9842 16.3587 17.8329 15.3396 18.3443 14.1454C19.4203 11.6254 18.8258 8.8114 17.0573 6.9389L14.7398 12.3734L11.8188 12.4274L9.83679 10.2804L12.1583 4.8474C9.58279 4.8654 7.13979 6.3829 6.06329 8.9029Z" stroke="#231F20" stroke-width="2" stroke-linecap="round" stroke-linejoin="round"/>
</g>
<defs>
<clipPath id="clip0_413_1850">
<rect width="24" height="24" fill="white"/>
</clipPath>
</defs>
</svg>
