<svg width="32" height="32" viewBox="0 0 32 32" fill="none" xmlns="http://www.w3.org/2000/svg">
<path fill-rule="evenodd" clip-rule="evenodd" d="M27.3994 8.38C28.0194 8.928 28.0774 9.876 27.5294 10.5L16.0294 23.5C15.8966 23.6502 15.735 23.7722 15.5543 23.8589C15.3735 23.9455 15.1772 23.9951 14.9769 24.0046C14.7767 24.0141 14.5766 23.9834 14.3884 23.9142C14.2002 23.8451 14.0278 23.7389 13.8814 23.602L6.3814 16.602C6.09287 16.3301 5.92373 15.955 5.91094 15.5588C5.89815 15.1625 6.04275 14.7773 6.31314 14.4874C6.58353 14.1974 6.95771 14.0263 7.3539 14.0114C7.75008 13.9966 8.13603 14.1391 8.4274 14.408L14.8074 20.348L25.2874 8.508C25.4181 8.36019 25.5766 8.23961 25.7539 8.15315C25.9313 8.0667 26.1239 8.01608 26.3208 8.00419C26.5178 7.9923 26.7151 8.01938 26.9016 8.08386C27.088 8.14835 27.2599 8.24898 27.4074 8.38H27.3994Z" fill="white"/>
</svg>
