<svg width="32" height="32" viewBox="0 0 32 32" fill="none" xmlns="http://www.w3.org/2000/svg">
<path d="M9.77778 26C9.28889 26 8.87052 25.823 8.52267 25.4689C8.17481 25.1148 8.00059 24.6887 8 24.1905V15.1429C8 14.6452 8.17422 14.2194 8.52267 13.8653C8.87111 13.5113 9.28948 13.3339 9.77778 13.3333H12.4444C12.6963 13.3333 12.9076 13.4202 13.0782 13.5939C13.2489 13.7676 13.3339 13.9824 13.3333 14.2381C13.3327 14.4938 13.2474 14.7089 13.0773 14.8832C12.9073 15.0575 12.6963 15.1441 12.4444 15.1429H9.77778V24.1905H22.2222V15.1429H19.5556C19.3037 15.1429 19.0927 15.056 18.9227 14.8823C18.7526 14.7086 18.6673 14.4938 18.6667 14.2381C18.6661 13.9824 18.7514 13.7676 18.9227 13.5939C19.0939 13.4202 19.3049 13.3333 19.5556 13.3333H22.2222C22.7111 13.3333 23.1298 13.5107 23.4782 13.8653C23.8267 14.22 24.0006 14.6458 24 15.1429V24.1905C24 24.6881 23.8261 25.1142 23.4782 25.4689C23.1304 25.8236 22.7117 26.0006 22.2222 26H9.77778ZM16.8889 18.0155L17.6889 17.2012C17.8519 17.0353 18.0557 16.9524 18.3004 16.9524C18.5452 16.9524 18.7561 17.0429 18.9333 17.2238C19.0963 17.3897 19.1778 17.6008 19.1778 17.8571C19.1778 18.1135 19.0963 18.3246 18.9333 18.4905L16.6222 20.8429C16.4444 21.0238 16.237 21.1143 16 21.1143C15.763 21.1143 15.5556 21.0238 15.3778 20.8429L13.0667 18.4905C12.9037 18.3246 12.8187 18.1174 12.8116 17.8689C12.8044 17.6204 12.8895 17.4054 13.0667 17.2238C13.2296 17.0579 13.437 16.975 13.6889 16.975C13.9407 16.975 14.1481 17.0579 14.3111 17.2238L15.1111 18.0155V7.90476C15.1111 7.64842 15.1964 7.43369 15.3671 7.26057C15.5378 7.08746 15.7487 7.00061 16 7C16.2513 6.9994 16.4625 7.08626 16.6338 7.26057C16.805 7.43489 16.8901 7.64962 16.8889 7.90476V18.0155Z" fill="white"/>
</svg>
