<svg width="24" height="24" viewBox="0 0 24 24" fill="none" xmlns="http://www.w3.org/2000/svg">
<path d="M12 16L11.4697 16.5303L12 17.0607L12.5303 16.5303L12 16ZM12.75 4C12.75 3.58579 12.4142 3.25 12 3.25C11.5858 3.25 11.25 3.58579 11.25 4L12.75 4ZM6 10L5.46967 10.5303L11.4697 16.5303L12 16L12.5303 15.4697L6.53033 9.46967L6 10ZM12 16L12.5303 16.5303L18.5303 10.5303L18 10L17.4697 9.46967L11.4697 15.4697L12 16ZM12 16L12.75 16L12.75 4L12 4L11.25 4L11.25 16L12 16Z" fill="#231F20"/>
<path d="M5 21H19" stroke="#231F20" stroke-width="1.5"/>
</svg>
