<svg width="24" height="24" viewBox="0 0 24 24" fill="none" xmlns="http://www.w3.org/2000/svg">
<path d="M8.00002 12.0001H16M7.61002 2.14807L7.80002 2.10807C8.28802 2.00807 8.53202 1.95807 8.69002 2.04207C8.84702 2.12507 8.98002 2.43707 9.24502 3.06207C9.72002 4.18107 10.825 4.96707 12 4.96707C13.175 4.96707 14.28 4.18107 14.755 3.06207C15.02 2.43707 15.153 2.12507 15.31 2.04207C15.467 1.95907 15.712 2.00907 16.2 2.10907L16.39 2.14807C17.65 2.37807 17.669 2.38907 18.533 3.39307C19.263 4.24107 20.308 5.10707 20.83 6.12707C21.214 6.87907 20.887 7.52307 20.456 8.12007C19.917 8.86507 19.218 9.58207 18.272 9.00107C17.668 8.63107 17.186 7.84907 16.717 7.30807C16.717 7.30807 17 10.9251 16 11.9311C16.908 12.5861 18.342 13.8581 19.48 16.4641C19.886 17.3941 20.432 18.4521 19.894 19.4441C18.064 22.8151 5.97502 22.8891 4.10602 19.4441C3.56802 18.4521 4.11402 17.3941 4.51902 16.4641C5.65803 13.8581 7.09202 12.5861 8.00002 11.9311C7.00002 10.9251 7.28302 7.30807 7.28302 7.30807C6.81402 7.84907 6.33302 8.63107 5.72802 9.00107C4.78202 9.58107 4.08302 8.86507 3.54402 8.12007C3.11402 7.52307 2.78602 6.87907 3.17002 6.12707C3.69202 5.10707 4.73802 4.24107 5.46702 3.39307C6.33102 2.38907 6.35102 2.37807 7.61002 2.14807Z" stroke="#231F20" stroke-opacity="0.75" stroke-linecap="round" stroke-linejoin="round"/>
</svg>
