<svg width="221" height="195" viewBox="0 0 221 195" fill="none" xmlns="http://www.w3.org/2000/svg">
<path d="M29.9541 142.686C30.9663 142.686 31.787 141.865 31.787 140.853C31.787 139.841 30.9663 139.02 29.9541 139.02C28.9419 139.02 28.1211 139.841 28.1211 140.853C28.1211 141.865 28.9419 142.686 29.9541 142.686Z" fill="#CFCFCF"/>
<path d="M148.811 66.0793C133.157 66.0793 117.222 65.4436 102.316 61.2914C87.6901 57.2329 74.2616 49.3592 62.2917 40.2506C54.4553 34.3218 47.3293 29.5898 37.1551 30.3009C27.2014 30.8395 17.683 34.5565 9.99861 40.9054C-2.9437 52.2392 -0.998506 73.2427 4.18201 87.943C11.9625 110.143 35.6401 125.611 55.7645 135.616C79.0122 147.231 104.56 153.983 130.164 157.854C152.608 161.277 181.447 163.746 200.899 149.101C218.76 135.616 223.66 104.869 219.284 84.1089C218.221 77.976 214.956 72.4423 210.1 68.548C197.551 59.3649 178.829 65.4995 164.727 65.7986C159.49 65.9111 154.16 66.042 148.811 66.0793Z" fill="#F2F2F2"/>
<path d="M116.211 160.173C127.873 160.173 137.326 150.719 137.326 139.058C137.326 127.396 127.873 117.943 116.211 117.943C104.549 117.943 95.0957 127.396 95.0957 139.058C95.0954 150.719 104.549 160.173 116.211 160.173Z" fill="#D2D2D2"/>
<path d="M94.3926 7.23324C95.5599 6.9729 96.7673 6.9451 97.9456 7.15127C99.1238 7.35743 100.25 7.79404 101.259 8.43505C102.269 9.07641 103.142 9.91057 103.83 10.8893C104.517 11.8684 105.005 12.9731 105.265 14.1405L108.639 29.2736L90.823 33.2459L87.4487 18.1132C87.1877 16.9427 87.1606 15.7321 87.3685 14.5507C87.5765 13.3696 88.0155 12.2414 88.6608 11.2302C89.306 10.2191 90.1444 9.3459 91.1281 8.65986C92.1117 7.97417 93.221 7.48901 94.3926 7.23324Z" fill="white" stroke="#BABABA" stroke-width="5.3161" stroke-linecap="round" stroke-linejoin="round"/>
<path d="M177.632 125.947L69.3608 150.074C68.6881 150.225 67.988 150.197 67.329 149.995C66.6701 149.793 66.0755 149.423 65.6033 148.92C65.1316 148.418 64.7984 147.801 64.6373 147.132C64.4761 146.46 64.4927 145.761 64.6851 145.099L65.134 143.546C68.8745 130.286 72.1289 115.679 69.1363 102.213L62.7399 73.4854C57.3536 49.3401 71.8295 24.7456 95.8438 18.8168C101.7 17.3631 107.787 17.0954 113.748 18.0294C119.709 18.9635 125.423 21.0804 130.553 24.2555C135.684 27.4307 140.126 31.6001 143.622 36.5181C147.118 41.4362 149.594 47.0041 150.905 52.8931L157.507 82.5932C160.518 96.0594 169.608 107.954 178.698 118.316L179.764 119.531C180.196 120.052 180.487 120.674 180.613 121.338C180.736 122.003 180.691 122.688 180.478 123.33C180.265 123.972 179.891 124.549 179.393 125.007C178.896 125.465 178.288 125.789 177.632 125.947Z" fill="white" stroke="#BABABA" stroke-width="5.3161" stroke-linecap="round" stroke-linejoin="round"/>
<path d="M97.5473 107.431C97.5178 103.063 98.9855 98.8163 101.706 95.3984C104.426 91.9805 108.236 89.5977 112.5 88.6463C116.763 87.6954 121.224 88.2333 125.139 90.1711C129.055 92.1086 132.188 95.3291 134.018 99.2959" stroke="#BABABA" stroke-width="5.3161" stroke-linecap="round" stroke-linejoin="round"/>
<path d="M130.949 77.0766C132.416 77.0766 133.605 75.8875 133.605 74.4208C133.605 72.954 132.416 71.7649 130.949 71.7649C129.482 71.7649 128.293 72.954 128.293 74.4208C128.293 75.8875 129.482 77.0766 130.949 77.0766Z" fill="#BABABA"/>
<path d="M89.7672 86.2594C91.2339 86.2594 92.4231 85.0702 92.4231 83.6035C92.4231 82.1368 91.2339 80.9476 89.7672 80.9476C88.3005 80.9476 87.1113 82.1368 87.1113 83.6035C87.1113 85.0706 88.3001 86.2594 89.7672 86.2594Z" fill="#BABABA"/>
<path d="M139.292 4.41594C140.304 4.41594 141.125 3.59515 141.125 2.58297C141.125 1.57079 140.304 0.75 139.292 0.75C138.28 0.75 137.459 1.57079 137.459 2.58297C137.459 3.59515 138.28 4.41594 139.292 4.41594Z" fill="#CFCFCF"/>
<path d="M29.9541 142.686C30.9663 142.686 31.787 141.865 31.787 140.853C31.787 139.841 30.9663 139.02 29.9541 139.02C28.9419 139.02 28.1211 139.841 28.1211 140.853C28.1211 141.865 28.9419 142.686 29.9541 142.686Z" fill="#CFCFCF"/>
<path d="M189.938 46.8527V54.8949" stroke="#BABABA" stroke-width="5.3161" stroke-linecap="round" stroke-linejoin="round"/>
<path d="M185.918 50.8744H193.96" stroke="#BABABA" stroke-width="5.3161" stroke-linecap="round" stroke-linejoin="round"/>
<path d="M193.605 167.935V175.978" stroke="#BABABA" stroke-width="5.3161" stroke-linecap="round" stroke-linejoin="round"/>
<path d="M189.582 171.956H197.624" stroke="#BABABA" stroke-width="5.3161" stroke-linecap="round" stroke-linejoin="round"/>
<path d="M52.9961 16.3672V24.4094" stroke="#BABABA" stroke-width="5.3161" stroke-linecap="round" stroke-linejoin="round"/>
<path d="M48.9746 20.3884H57.0168" stroke="#BABABA" stroke-width="5.3161" stroke-linecap="round" stroke-linejoin="round"/>
<path d="M111.256 194.25C149.174 194.25 179.914 192.333 179.914 189.967C179.914 187.601 149.174 185.684 111.256 185.684C73.337 185.684 42.5977 187.601 42.5977 189.967C42.5977 192.333 73.337 194.25 111.256 194.25Z" fill="#F2F2F2"/>
<path d="M176.846 42.2893C176.841 47.9772 174.579 53.4307 170.558 57.4527C166.535 61.4747 161.081 63.7365 155.394 63.7414C154.694 63.7411 153.995 63.7038 153.299 63.6292L146.94 74.0092L144.957 61.0106C141.655 59.1709 138.894 56.4908 136.961 53.2414C135.026 49.992 133.985 46.2895 133.943 42.5082C133.901 38.7272 134.859 35.0018 136.72 31.7102C138.582 28.4186 141.278 25.6772 144.541 23.764C147.802 21.8508 151.513 20.8341 155.293 20.8162C159.074 20.7986 162.795 21.7808 166.073 23.6634C169.354 25.546 172.077 28.262 173.968 31.536C175.86 34.81 176.854 38.5263 176.846 42.3076L176.846 42.2893Z" fill="white" stroke="#BABABA" stroke-width="5.3161" stroke-linecap="round" stroke-linejoin="round"/>
<path d="M146.23 44.4587C147.429 44.4587 148.4 43.4873 148.4 42.289C148.4 41.0911 147.429 40.1194 146.23 40.1194C145.031 40.1194 144.061 41.0908 144.061 42.289C144.061 43.4877 145.031 44.4587 146.23 44.4587Z" fill="#D2D2D2" stroke="#D2D2D2" stroke-width="5.3161" stroke-miterlimit="10"/>
<path d="M155.394 44.4587C156.593 44.4587 157.564 43.4873 157.564 42.289C157.564 41.0911 156.593 40.1194 155.394 40.1194C154.195 40.1194 153.225 41.0908 153.225 42.289C153.225 43.4877 154.196 44.4587 155.394 44.4587Z" fill="#D2D2D2" stroke="#D2D2D2" stroke-width="5.3161" stroke-miterlimit="10"/>
<path d="M164.558 44.4587C165.757 44.4587 166.728 43.4873 166.728 42.289C166.728 41.0911 165.757 40.1194 164.558 40.1194C163.359 40.1194 162.389 41.0908 162.389 42.289C162.389 43.4877 163.359 44.4587 164.558 44.4587Z" fill="#D2D2D2" stroke="#D2D2D2" stroke-width="5.3161" stroke-miterlimit="10"/>
</svg>
