<svg width="101" height="100" viewBox="0 0 101 100" fill="none" xmlns="http://www.w3.org/2000/svg">
<path d="M16.6 68.5625C13.025 54.2625 11.2375 47.1167 14.9917 42.3083C18.7458 37.5 26.1167 37.5 40.8542 37.5H60.1458C74.8875 37.5 82.2542 37.5 86.0083 42.3083C89.7625 47.1167 87.975 54.2667 84.4 68.5625C82.125 77.6583 80.9917 82.2042 77.6 84.8542C74.2083 87.5 69.5208 87.5 60.1458 87.5H40.8542C31.4792 87.5 26.7917 87.5 23.4 84.8542C20.0083 82.2042 18.8708 77.6583 16.6 68.5625Z" stroke="#231F20" stroke-opacity="0.75" stroke-width="4"/>
<path opacity="0.5" d="M81.75 39.5832L78.7917 28.729C77.65 24.5415 77.0792 22.4498 75.9083 20.8707C74.7409 19.3018 73.1555 18.0932 71.3333 17.3832C69.5 16.6665 67.3333 16.6665 63 16.6665M19.25 39.5832L22.2083 28.729C23.35 24.5415 23.9208 22.4498 25.0917 20.8707C26.2591 19.3018 27.8445 18.0932 29.6667 17.3832C31.5 16.6665 33.6667 16.6665 38 16.6665" stroke="#231F20" stroke-opacity="0.75" stroke-width="4"/>
<path d="M38 16.6667C38 15.5616 38.439 14.5018 39.2204 13.7204C40.0018 12.939 41.0616 12.5 42.1667 12.5H58.8333C59.9384 12.5 60.9982 12.939 61.7796 13.7204C62.561 14.5018 63 15.5616 63 16.6667C63 17.7717 62.561 18.8315 61.7796 19.6129C60.9982 20.3943 59.9384 20.8333 58.8333 20.8333H42.1667C41.0616 20.8333 40.0018 20.3943 39.2204 19.6129C38.439 18.8315 38 17.7717 38 16.6667Z" stroke="#231F20" stroke-opacity="0.75" stroke-width="4"/>
<path d="M40.0063 74.074V74.074C47.0802 70.9301 55.1548 70.9301 62.2286 74.074V74.074" stroke="#231F20" stroke-opacity="0.75"/>
<circle cx="39.389" cy="52.469" r="1.85185" fill="#231F20" fill-opacity="0.75"/>
<circle cx="62.846" cy="52.469" r="1.85185" fill="#231F20" fill-opacity="0.75"/>
</svg>
