<svg width="191" height="191" viewBox="0 0 191 191" fill="none" xmlns="http://www.w3.org/2000/svg">
<g opacity="0.75">
<path d="M133.419 154.435L127.201 161.813L127.074 161.963C126.512 162.619 125.834 163.18 125.063 163.608C124.293 164.038 123.432 164.334 122.506 164.463L43.5107 175.556C39.4693 176.124 35.7347 173.3 35.1798 169.255L19.2703 53.116C18.9851 51.0318 19.5984 49.0376 20.8115 47.5178C20.9072 47.3948 21.0107 47.2737 21.1182 47.1564L27.2965 39.8413C26.1186 41.3512 25.5269 43.3162 25.808 45.3692L41.7176 161.508C42.2722 165.553 46.007 168.378 50.0503 167.809L129.045 156.716C130.793 156.473 132.309 155.634 133.419 154.435Z" fill="#B1BEC6"/>
</g>
<path d="M42.4675 176.011C40.7916 176.011 39.1693 175.47 37.8084 174.441C36.1515 173.188 35.0836 171.365 34.8013 169.306L18.8919 53.1681C18.6014 51.0446 19.1771 48.9535 20.513 47.2798C20.6075 47.1581 20.7173 47.0286 20.8365 46.8986L27.0047 39.5951L27.5977 40.0766C26.4298 41.5739 25.9286 43.4351 26.1866 45.3176L42.096 161.456C42.3504 163.311 43.313 164.955 44.8063 166.084C46.2995 167.213 48.1426 167.692 49.9971 167.431L128.992 156.338C130.581 156.116 132.053 155.348 133.138 154.176L133.71 154.681L127.366 162.209C126.761 162.915 126.049 163.497 125.247 163.942C124.416 164.406 123.511 164.709 122.558 164.841L43.5638 175.934C43.1973 175.986 42.8311 176.011 42.4675 176.011ZM25.5941 42.4492L21.4099 47.4034C21.2943 47.53 21.1979 47.6436 21.1129 47.7529C19.9058 49.2652 19.3868 51.1504 19.6489 53.0646L35.5584 169.203C35.8128 171.059 36.7755 172.702 38.2693 173.832C39.7623 174.961 41.6053 175.438 43.4574 175.178L122.452 164.085C123.311 163.966 124.127 163.693 124.876 163.275C125.599 162.874 126.24 162.349 126.784 161.715L131.182 156.497C130.523 156.791 129.821 156.994 129.098 157.095L50.1033 168.188C48.0462 168.477 46.0017 167.947 44.3454 166.694C42.6888 165.441 41.6211 163.618 41.339 161.56L25.4295 45.4217C25.291 44.4108 25.3498 43.4055 25.5941 42.4492Z" fill="#B1BEC6"/>
<g opacity="0.5">
<path d="M135.303 148.257L117.421 35.6616C116.809 31.8078 113.301 29.0987 109.418 29.4795L94.4972 30.9426L95.0715 36.3825L109.952 34.9234C110.016 34.9156 110.083 34.9137 110.145 34.9137C111.069 34.9137 111.874 35.6032 112.02 36.5192L129.903 149.115C130.033 149.937 129.608 150.502 129.418 150.705L129.371 150.755C129.16 150.972 128.811 151.228 128.289 151.3L49.2905 162.393C49.1967 162.407 49.1051 162.412 49.0151 162.412C48.0717 162.412 47.265 161.705 47.136 160.766L31.2261 44.6272C31.1323 43.9376 31.4253 43.4395 31.6089 43.2052L31.648 43.1544C31.6597 43.1406 31.6948 43.1016 31.6948 43.1016L31.7143 43.0802C31.9351 42.8362 32.3257 42.5334 32.9293 42.4748L51.2941 40.6738L50.7198 35.234L32.396 37.0311C30.4994 37.2166 28.8449 38.1034 27.6632 39.4064C27.5402 39.5391 27.4248 39.6759 27.3135 39.8185C27.3076 39.8264 27.3018 39.8342 27.2959 39.842C26.118 41.3519 25.5263 43.3169 25.8074 45.37L41.717 161.509C42.2716 165.554 46.0065 168.378 50.0497 167.81L129.045 156.717C130.793 156.473 132.309 155.635 133.418 154.436C133.424 154.432 133.43 154.426 133.432 154.42C134.913 152.82 135.672 150.581 135.303 148.257Z" fill="#B1BEC6"/>
</g>
<path d="M49.0073 168.265C47.3305 168.265 45.707 167.723 44.3457 166.694C42.6892 165.441 41.6215 163.618 41.3394 161.56L25.4299 45.4213C25.1437 43.3327 25.6997 41.2676 26.9955 39.6067L27.0087 39.5889C27.1357 39.426 27.257 39.2831 27.3838 39.1464C28.6723 37.7257 30.4404 36.8383 32.3595 36.6508L51.0605 34.8168L51.7151 41.0166L32.9673 42.855C32.4837 42.902 32.1735 43.1429 31.9985 43.3365L31.9122 43.4385C31.764 43.6276 31.53 44.0232 31.6053 44.5761L47.5148 160.714C47.6178 161.465 48.263 162.031 49.0153 162.031C49.0904 162.031 49.1645 162.026 49.2357 162.015L128.236 150.922C128.574 150.876 128.864 150.73 129.098 150.489L129.138 150.445C129.29 150.282 129.63 149.834 129.526 149.175L111.643 36.5793C111.526 35.8478 110.882 35.2958 110.145 35.2958C110.098 35.2958 110.047 35.2968 109.998 35.3029L94.7317 36.7999L94.0772 30.6003L109.381 29.0998C113.458 28.7002 117.156 31.5558 117.798 35.6022L135.681 148.198C136.054 150.551 135.344 152.904 133.732 154.659C133.718 154.677 133.701 154.695 133.684 154.711C132.482 156.004 130.854 156.85 129.098 157.095L50.1036 168.188C49.7371 168.239 49.371 168.265 49.0073 168.265ZM50.3804 35.6509L32.434 37.411C30.7039 37.5802 29.1104 38.3799 27.9469 39.6627C27.8321 39.7864 27.7247 39.913 27.6155 40.0531L27.601 40.0723C26.4299 41.5736 25.9288 43.4349 26.1868 45.3174L42.0963 161.456C42.3507 163.311 43.3134 164.955 44.8066 166.084C46.2999 167.213 48.143 167.691 49.9974 167.431L128.992 156.338C130.561 156.119 132.016 155.368 133.097 154.22L133.097 154.22L133.152 154.16C134.618 152.576 135.265 150.446 134.927 148.317L117.044 35.7212C116.465 32.0736 113.132 29.4993 109.456 29.8594L94.9178 31.2848L95.4119 35.9649L109.915 34.5429C109.976 34.5353 110.052 34.5312 110.145 34.5312C111.254 34.5312 112.222 35.3598 112.398 36.4584L130.28 149.054C130.438 150.046 129.925 150.721 129.698 150.965L129.652 151.014C129.401 151.272 128.976 151.59 128.342 151.678L49.3436 162.771C49.2378 162.786 49.1267 162.794 49.0151 162.794C47.8827 162.794 46.9122 161.944 46.7577 160.817L30.8483 44.6791C30.7353 43.8475 31.0884 43.251 31.309 42.9696L31.3461 42.9213C31.3711 42.8911 31.4116 42.846 31.4116 42.846L31.433 42.8226C31.6973 42.5301 32.1664 42.1651 32.8932 42.0943L50.8747 40.331L50.3804 35.6509Z" fill="#B1BEC6"/>
<g opacity="0.25">
<path d="M129.418 150.704L129.371 150.755C129.16 150.972 128.81 151.228 128.289 151.3L49.2901 162.393C49.1963 162.407 49.1046 162.412 49.0147 162.412C48.0713 162.412 47.2645 161.705 47.1356 160.766L31.2261 44.6271C31.1323 43.9376 31.4253 43.4395 31.6088 43.2051L31.648 43.1543C31.6596 43.1406 31.6948 43.1016 31.6948 43.1016L31.7143 43.0802C31.9351 42.8361 32.3257 42.5334 32.9292 42.4748L51.2941 40.6738L51.4619 42.2715C51.6612 44.1603 53.3548 45.5315 55.2455 45.3323L92.1453 41.4374C94.0341 41.2382 95.4053 39.5446 95.2061 37.6539L95.0713 36.3822L109.952 34.9232C110.016 34.9154 110.082 34.9135 110.145 34.9135C111.069 34.9135 111.874 35.603 112.02 36.519L129.902 149.114C130.033 149.937 129.607 150.501 129.418 150.704Z" fill="#B1BEC6"/>
</g>
<g opacity="0.75">
<path d="M92.1456 41.4374L55.2461 45.3323C53.3554 45.5315 51.6618 44.1603 51.4626 42.2715L51.2947 40.6738L50.7204 35.2339L50.2692 30.9641C50.07 29.0732 51.4412 27.3798 53.33 27.1806L61.8757 26.2781L80.7463 24.2858L90.2295 23.2857C92.1202 23.0865 93.8138 24.4577 94.013 26.3465L94.4974 30.9425L95.0717 36.3824L95.2066 37.6541C95.4056 39.5446 94.0344 41.2382 92.1456 41.4374Z" fill="#B1BEC6"/>
</g>
<path d="M54.8826 45.7335C52.9527 45.7335 51.2899 44.2721 51.083 42.3117L49.8894 31.0041C49.6685 28.9073 51.1942 27.0218 53.29 26.8006L90.1895 22.9057C92.2878 22.6838 94.172 24.2102 94.393 26.3063L95.5866 37.6137C95.8076 39.7105 94.2818 41.596 92.186 41.8174L55.2865 45.7123C55.1509 45.7266 55.0159 45.7335 54.8826 45.7335ZM90.5929 23.6485C90.4861 23.6485 90.3782 23.6541 90.2697 23.6655L53.3702 27.5604C51.6931 27.7374 50.4724 29.2463 50.649 30.9241L51.8426 42.2319C52.0195 43.9086 53.528 45.1278 55.2061 44.9527L92.1056 41.0578C93.7828 40.8807 95.0035 39.3718 94.8268 37.6941L93.6332 26.3865C93.4678 24.8178 92.1371 23.6485 90.5929 23.6485Z" fill="#B1BEC6"/>
<path d="M80.7465 24.2857L61.8759 26.278C61.874 26.2488 61.874 26.2174 61.874 26.1861C61.874 21.3655 66.1498 17.4587 71.4236 17.4587C75.9824 17.4589 79.7973 20.3791 80.7465 24.2857Z" fill="#B1BEC6"/>
<path d="M51.2947 41.0558C51.1004 41.0558 50.9342 40.9084 50.9149 40.711C50.8943 40.5009 51.0479 40.3141 51.2578 40.2935L95.035 36.0021C95.2443 35.9813 95.4319 36.1351 95.4525 36.345C95.4731 36.5551 95.3196 36.7419 95.1097 36.7625L51.3325 41.0539C51.3199 41.0552 51.3073 41.0558 51.2947 41.0558Z" fill="#B1BEC6"/>
<path d="M81.1626 103.075C81.1446 103.075 81.1265 103.073 81.1082 103.071C80.7942 103.026 80.5023 102.924 80.2061 102.815C79.2201 102.453 78.2277 102.063 77.2563 101.656C77.0616 101.575 76.9699 101.351 77.0515 101.156C77.1329 100.962 77.3563 100.87 77.5514 100.952C78.5125 101.354 79.4944 101.74 80.4698 102.098C80.7262 102.193 80.976 102.28 81.2159 102.315C81.4248 102.344 81.5698 102.538 81.5402 102.747C81.5133 102.937 81.3498 103.075 81.1626 103.075ZM84.5229 101.085C84.4113 101.085 84.3007 101.036 84.2253 100.943C84.0929 100.779 84.1185 100.538 84.2828 100.405C85.3447 99.5486 86.3758 98.6853 87.3472 97.8398C87.5065 97.7015 87.7477 97.7181 87.8862 97.877C88.0247 98.0363 88.0078 98.2775 87.8487 98.416C86.8702 99.2677 85.8318 100.137 84.7626 101C84.6919 101.057 84.6071 101.085 84.5229 101.085ZM73.7499 100.035C73.6937 100.035 73.637 100.022 73.5831 99.9963C72.3711 99.4071 71.1685 98.7793 70.0088 98.1307C69.8246 98.0277 69.7588 97.7949 69.8617 97.6108C69.9648 97.4266 70.1977 97.3609 70.3816 97.4639C71.5287 98.1053 72.7183 98.7262 73.9172 99.3091C74.1069 99.4014 74.1859 99.63 74.0937 99.8197C74.0276 99.9557 73.8916 100.035 73.7499 100.035ZM66.7549 96.1166C66.6842 96.1166 66.6128 96.0971 66.5488 96.056C65.4049 95.3214 64.2864 94.5509 63.2248 93.7661C63.0552 93.6406 63.0193 93.4015 63.1448 93.2319C63.2703 93.0621 63.5092 93.0264 63.679 93.1519C64.7272 93.9269 65.8318 94.6879 66.9616 95.4133C67.1392 95.5273 67.1906 95.7638 67.0767 95.9412C67.0038 96.0547 66.8806 96.1166 66.7549 96.1166ZM90.5665 95.8131C90.4654 95.8131 90.3646 95.7731 90.2895 95.6943C90.1442 95.5413 90.1503 95.2995 90.3033 95.1541C91.2852 94.2211 92.2354 93.2722 93.1276 92.334C93.2729 92.181 93.5146 92.1749 93.6677 92.3204C93.8205 92.4658 93.8267 92.7076 93.6813 92.8606C92.7804 93.8079 91.821 94.7662 90.8299 95.708C90.7556 95.7781 90.6608 95.8131 90.5665 95.8131ZM60.3128 91.3429C60.2248 91.3429 60.1364 91.3127 60.0644 91.2508C59.0257 90.3598 58.0292 89.434 57.1029 88.4995C56.9543 88.3497 56.9554 88.1077 57.1054 87.9593C57.2551 87.8107 57.4971 87.8119 57.6455 87.9618C58.5574 88.8819 59.5387 89.7933 60.5619 90.6711C60.722 90.8085 60.7405 91.0497 60.6032 91.2098C60.5275 91.2976 60.4206 91.3429 60.3128 91.3429ZM96.0843 89.9963C95.9972 89.9963 95.9095 89.9667 95.8377 89.9058C95.6767 89.7694 95.6566 89.5286 95.793 89.3674C96.6636 88.3392 97.4971 87.2887 98.2703 86.2455C98.396 86.0761 98.6353 86.0405 98.8047 86.166C98.9741 86.2917 99.0098 86.531 98.8841 86.7004C98.101 87.7569 97.2572 88.8204 96.3761 89.8611C96.3005 89.9503 96.1928 89.9963 96.0843 89.9963ZM54.6808 85.6408C54.5708 85.6408 54.4616 85.5934 54.3859 85.5019C53.5127 84.4432 52.6998 83.3499 51.97 82.2524C51.8533 82.0767 51.9008 81.8397 52.0765 81.7228C52.2525 81.6061 52.4895 81.6538 52.6062 81.8294C53.3215 82.9053 54.1185 83.9774 54.9753 85.0156C55.1096 85.1784 55.0865 85.4192 54.9238 85.5535C54.8523 85.6121 54.7664 85.6408 54.6808 85.6408ZM100.848 83.5501C100.778 83.5501 100.708 83.531 100.644 83.4909C100.466 83.3782 100.413 83.1423 100.526 82.9639C101.258 81.8047 101.92 80.6433 102.494 79.512C102.589 79.3238 102.819 79.249 103.007 79.3439C103.195 79.4392 103.271 79.6692 103.175 79.8575C102.591 81.0102 101.917 82.1928 101.172 83.3721C101.099 83.4871 100.975 83.5501 100.848 83.5501ZM50.2871 78.9502C50.1446 78.9502 50.008 78.8702 49.9423 78.7333C49.3174 77.4293 48.8486 76.1378 48.549 74.8942C48.4995 74.689 48.6257 74.4828 48.8309 74.4333C49.0358 74.3831 49.2423 74.5101 49.2918 74.7152C49.5788 75.9065 50.0294 77.1472 50.6314 78.4028C50.7225 78.5931 50.6423 78.8213 50.4521 78.9126C50.3986 78.9382 50.3423 78.9502 50.2871 78.9502ZM104.44 76.3939C104.396 76.3939 104.352 76.3863 104.309 76.3704C104.111 76.2978 104.009 76.0784 104.081 75.8803C104.546 74.6111 104.917 73.3337 105.181 72.0834C105.225 71.8771 105.428 71.7453 105.634 71.7889C105.841 71.8326 105.973 72.0353 105.929 72.2418C105.656 73.5274 105.276 74.8401 104.799 76.1431C104.742 76.298 104.596 76.3939 104.44 76.3939ZM48.5367 71.2086C48.5293 71.2086 48.5218 71.2084 48.5144 71.2081C48.3037 71.196 48.1429 71.0155 48.1549 70.8049C48.2315 69.4715 48.523 68.1198 49.0215 66.7877C49.0954 66.5903 49.3156 66.4896 49.5131 66.5639C49.7108 66.6378 49.8111 66.8578 49.737 67.0555C49.2654 68.3159 48.9898 69.592 48.9176 70.8488C48.9061 71.0518 48.7377 71.2086 48.5367 71.2086ZM105.884 70.6146C105.867 70.6146 105.851 70.6137 105.835 70.6116C105.625 70.5846 105.477 70.3932 105.504 70.1839C105.634 69.1787 105.699 68.1603 105.699 67.1566C105.699 66.8529 105.693 66.5461 105.681 66.2451C105.673 66.0344 105.837 65.8566 106.048 65.8482C106.257 65.8398 106.436 66.0039 106.445 66.2147C106.457 66.5257 106.463 66.8426 106.463 67.1566C106.463 68.1927 106.396 69.244 106.262 70.2813C106.237 70.474 106.073 70.6146 105.884 70.6146ZM51.2356 63.7589C51.1617 63.7589 51.0868 63.7375 51.0211 63.6926C50.8467 63.5738 50.8014 63.3362 50.9202 63.1618C51.667 62.0645 52.5495 61.013 53.5427 60.0365C53.6932 59.8884 53.935 59.8905 54.083 60.0411C54.2308 60.1916 54.2289 60.4334 54.0784 60.5814C53.1207 61.523 52.2706 62.5359 51.5519 63.5919C51.4779 63.7004 51.3578 63.7589 51.2356 63.7589ZM105.538 62.6411C105.365 62.6411 105.208 62.5219 105.167 62.3455C104.86 61.0236 104.422 59.7819 103.864 58.6546C103.771 58.4655 103.848 58.2363 104.038 58.1429C104.227 58.0497 104.456 58.127 104.549 58.3161C105.133 59.4959 105.591 60.7934 105.911 62.1726C105.959 62.3781 105.831 62.5835 105.625 62.6312C105.596 62.6379 105.567 62.6411 105.538 62.6411ZM78.4523 62.0702C78.3751 62.0702 78.2974 62.0469 78.23 61.9986C78.0585 61.8756 78.0191 61.637 78.1421 61.4657C79.0037 60.2636 79.8227 59.2236 80.6461 58.2863C80.7852 58.128 81.0266 58.1119 81.1851 58.2514C81.3437 58.3906 81.3593 58.632 81.2201 58.7904C80.4135 59.7087 79.6098 60.7292 78.7631 61.9108C78.6884 62.0148 78.5713 62.0702 78.4523 62.0702ZM75.3352 60.5434C75.2496 60.5434 75.1635 60.5149 75.0922 60.4561C73.9113 59.4824 72.8923 58.751 71.8852 58.1544C71.7037 58.0468 71.6437 57.8125 71.7513 57.631C71.8588 57.4494 72.0932 57.3896 72.2746 57.4971C73.3165 58.1144 74.3662 58.8674 75.5783 59.8667C75.7411 60.0009 75.7642 60.2416 75.6301 60.4043C75.5545 60.496 75.4452 60.5434 75.3352 60.5434ZM56.9213 58.1683C56.7962 58.1683 56.6737 58.107 56.6006 57.9943C56.4856 57.8174 56.536 57.5808 56.7129 57.4658C57.9229 56.6798 59.1686 56.0849 60.4152 55.6977C60.6167 55.6349 60.8306 55.7478 60.8935 55.9491C60.9561 56.1506 60.8434 56.3645 60.6419 56.4273C59.4623 56.7939 58.2804 57.3588 57.1291 58.1066C57.0647 58.1484 56.9925 58.1683 56.9213 58.1683ZM68.4258 56.5769C68.3883 56.5769 68.3501 56.5713 68.3123 56.5597C67.021 56.1586 65.7296 55.9382 64.4738 55.9044C64.2629 55.8986 64.0966 55.7231 64.1021 55.5123C64.1078 55.3014 64.2837 55.1346 64.4942 55.1406C65.8198 55.1763 67.1806 55.4082 68.5388 55.8299C68.7403 55.8925 68.853 56.1065 68.7904 56.308C68.7398 56.472 68.5887 56.5769 68.4258 56.5769ZM83.7869 56.107C83.6779 56.107 83.5694 56.0604 83.4937 55.9703C83.3583 55.8085 83.3797 55.5676 83.5415 55.4322C84.192 54.8877 84.8638 54.3892 85.5384 53.9506C85.9855 53.6595 86.4527 53.3878 86.9264 53.1427C87.114 53.0459 87.3443 53.119 87.4411 53.3064C87.538 53.4938 87.4646 53.7243 87.2775 53.8211C86.8261 54.0545 86.3813 54.3137 85.9552 54.5911C85.306 55.0132 84.659 55.4933 84.032 56.0182C83.9606 56.078 83.8735 56.107 83.7869 56.107ZM101.948 55.5724C101.847 55.5724 101.747 55.5329 101.672 55.4544C100.769 54.5101 99.7184 53.7552 98.5488 53.2107C98.3576 53.1217 98.2747 52.8944 98.3637 52.7032C98.4527 52.5122 98.68 52.4291 98.8712 52.5181C100.127 53.103 101.255 53.9134 102.224 54.9266C102.37 55.0791 102.364 55.3209 102.212 55.4668C102.138 55.5373 102.043 55.5724 101.948 55.5724ZM90.8631 52.504C90.6872 52.504 90.5289 52.3816 90.4901 52.2026C90.4454 51.9963 90.5764 51.7931 90.7827 51.7486C91.7789 51.533 92.7828 51.4237 93.7659 51.4237C93.7663 51.4237 93.7667 51.4237 93.7671 51.4237C94.1412 51.4237 94.5167 51.4397 94.8833 51.4713C95.0936 51.4894 95.2492 51.6745 95.2311 51.8846C95.2129 52.0949 95.0288 52.2515 94.8178 52.2324C94.473 52.2028 94.1195 52.1877 93.7671 52.1877C93.7667 52.1877 93.7663 52.1877 93.7659 52.1877C92.8369 52.1877 91.8876 52.2912 90.9443 52.4952C90.917 52.5011 90.8898 52.504 90.8631 52.504Z" fill="#B1BEC6"/>
<path d="M55.3424 118.791C55.1522 118.791 54.9875 118.649 54.9638 118.456C54.9381 118.246 55.087 118.055 55.2964 118.03L112.15 111.048C112.359 111.023 112.55 111.171 112.575 111.38C112.601 111.59 112.452 111.78 112.243 111.806L55.3894 118.788C55.3735 118.79 55.3579 118.791 55.3424 118.791Z" fill="#B1BEC6"/>
<path d="M57.1129 135.148C56.9227 135.148 56.758 135.006 56.7343 134.812C56.7086 134.603 56.8575 134.412 57.0669 134.387L113.92 127.405C114.129 127.38 114.32 127.528 114.345 127.737C114.371 127.947 114.222 128.137 114.013 128.163L57.1599 135.145C57.1442 135.147 57.1284 135.148 57.1129 135.148Z" fill="#B1BEC6"/>
<g opacity="0.75">
<path d="M81.4946 78.1157C80.7563 78.0302 79.9297 78.0168 79.0085 78.1068C78.09 78.1963 77.28 78.3669 76.5647 78.5971C72.2863 79.9579 71.4245 83.343 71.3838 83.51C71.2436 84.096 71.6038 84.6793 72.1877 84.825C72.7702 84.9707 73.3658 84.6134 73.5171 84.0316C73.5532 83.8996 74.4258 80.7622 79.222 80.2941C83.959 79.8317 85.1967 82.6994 85.2408 82.8117C85.4232 83.2827 85.8925 83.5575 86.3727 83.5105C86.4697 83.501 86.5658 83.4798 86.66 83.4414C87.227 83.2258 87.5082 82.5903 87.2937 82.023C87.2293 81.8639 85.9353 78.6362 81.4946 78.1157Z" fill="#B1BEC6"/>
<path d="M84.7222 66.5727C82.9862 66.7422 81.718 68.2833 81.8872 70.0182C82.0564 71.7515 83.599 73.0198 85.335 72.8503C87.0671 72.6813 88.3352 71.1388 88.166 69.4053C87.9967 67.6706 86.4544 66.4037 84.7222 66.5727Z" fill="#B1BEC6"/>
<path d="M74.3525 70.7537C74.1831 69.0191 72.6408 67.7521 70.9048 67.9216C69.1726 68.0906 67.9044 69.6318 68.0738 71.3666C68.243 73.1 69.7855 74.3682 71.5177 74.1992C73.2535 74.0296 74.5217 72.487 74.3525 70.7537Z" fill="#B1BEC6"/>
</g>
<path d="M72.4515 85.2397C72.3338 85.2397 72.2144 85.2256 72.0954 85.1958C71.3112 85.0002 70.8255 84.2041 71.0128 83.4212C71.0505 83.2667 71.9774 79.6554 76.4493 78.2332C77.219 77.9855 78.0682 77.8151 78.972 77.7267C79.8661 77.6392 80.7298 77.6425 81.539 77.7365H81.5396C86.0593 78.2659 87.4986 81.5098 87.6478 81.8779C87.9406 82.6524 87.5569 83.5094 86.7963 83.7986C86.6804 83.846 86.5517 83.8771 86.4103 83.8909C85.7521 83.9543 85.1245 83.5679 84.885 82.9496C84.8751 82.925 83.7336 80.2374 79.2597 80.6742C74.7637 81.1131 73.9197 84.0093 73.8861 84.1323C73.714 84.7945 73.1095 85.2397 72.4515 85.2397ZM80.2408 78.4275C79.8516 78.4275 79.4526 78.4474 79.0461 78.4871C78.1965 78.57 77.4012 78.7295 76.6821 78.9608C72.6136 80.2548 71.7887 83.4645 71.7557 83.6005C71.6657 83.976 71.9012 84.3599 72.2809 84.4547C72.6598 84.5494 73.0489 84.3168 73.148 83.9359C73.2481 83.5705 74.2566 80.3956 79.1855 79.9142C84.2595 79.4205 85.5842 82.6398 85.5968 82.6725C85.7137 82.9742 86.0182 83.1622 86.3362 83.1309C86.4029 83.1244 86.4619 83.1104 86.5167 83.0881C86.8924 82.9452 87.0773 82.5296 86.9371 82.1585C86.808 81.8401 85.5336 78.9739 81.4506 78.4955C81.0606 78.45 80.6562 78.4275 80.2408 78.4275Z" fill="#B1BEC6"/>
<path d="M85.0217 73.2476C84.2048 73.2478 83.4202 72.968 82.7813 72.4429C82.0515 71.8432 81.599 70.9953 81.5073 70.0552C81.4156 69.1147 81.6954 68.1951 82.2956 67.4657C82.8955 66.7366 83.7445 66.2843 84.6853 66.1924C85.6249 66.1013 86.5438 66.3804 87.273 66.9799C88.0024 67.5797 88.4547 68.4277 88.5466 69.368C88.6383 70.3077 88.3587 71.2272 87.7589 71.9568C87.1592 72.6864 86.3117 73.1387 85.3724 73.2304C85.2549 73.2419 85.1378 73.2476 85.0217 73.2476ZM84.7596 66.953C84.0214 67.025 83.356 67.3795 82.8856 67.9512C82.4151 68.5228 82.1959 69.2437 82.2679 69.9811C82.3397 70.718 82.6944 71.3827 83.2664 71.8527C83.8388 72.323 84.5606 72.5422 85.2983 72.47C86.0344 72.3982 86.6989 72.0437 87.1687 71.4719C87.6388 70.8998 87.858 70.1792 87.786 69.4425C87.7142 68.7052 87.3597 68.0404 86.7879 67.5703C86.2162 67.1003 85.496 66.8814 84.7596 66.953Z" fill="#B1BEC6"/>
<path d="M71.2054 74.5962C70.3896 74.5962 69.6057 74.3164 68.9672 73.7912C68.2378 73.1912 67.7855 72.3434 67.6938 71.4035C67.6022 70.4632 67.8818 69.5435 68.4815 68.8141C69.0811 68.0848 69.9285 67.6327 70.8681 67.5411C71.8097 67.4488 72.7294 67.7286 73.459 68.3282C74.1888 68.9275 74.6413 69.7758 74.7331 70.7164C74.8248 71.6565 74.545 72.576 73.9449 73.3054C73.3448 74.0351 72.4961 74.4873 71.5551 74.5792C71.4378 74.5905 71.3213 74.5962 71.2054 74.5962ZM71.2174 68.2882C71.1261 68.2882 71.0342 68.2926 70.9422 68.3018C70.2059 68.3736 69.5416 68.7279 69.0715 69.2996C68.6015 69.8715 68.3822 70.5923 68.4542 71.3295C68.526 72.0664 68.8807 72.7311 69.4524 73.2013C70.0242 73.6714 70.7445 73.891 71.4806 73.8188C72.2186 73.7468 72.8841 73.3921 73.3547 72.8201C73.8249 72.2483 74.0444 71.5276 73.9724 70.7907C73.9006 70.0535 73.5459 69.3886 72.9738 68.9187C72.4732 68.5073 71.858 68.2882 71.2174 68.2882Z" fill="#B1BEC6"/>
<g opacity="0.25">
<path d="M171.797 34.667C171.797 34.7864 171.796 34.9056 171.793 35.0234C171.704 38.9106 170.166 42.5171 167.587 45.5164C165.545 47.8934 162.848 49.8899 159.703 51.3457C156.106 53.0083 151.92 53.963 147.453 53.963C146.045 53.963 144.668 53.8678 143.327 53.6851L138.745 58.3078C138.073 58.9843 136.922 58.5903 136.804 57.6464L136.066 51.7248C135.775 51.6024 135.486 51.4756 135.202 51.3428C128.092 48.0551 123.273 41.9901 123.113 35.0236C123.11 34.9057 123.108 34.7866 123.108 34.6672C123.108 30.4552 124.812 26.5573 127.701 23.3844C130.256 20.5784 133.739 18.3403 137.793 16.9494C140.753 15.9347 144.02 15.3712 147.453 15.3712C150.885 15.3712 154.152 15.9345 157.112 16.9494C161.372 18.4114 165.001 20.8096 167.587 23.8163C170.245 26.9074 171.797 30.6438 171.797 34.667Z" fill="#B1BEC6"/>
</g>
<path d="M137.939 59.0289C137.774 59.0289 137.607 59.0018 137.444 58.9462C136.889 58.7565 136.498 58.2767 136.426 57.6934L135.714 51.9904C135.479 51.8893 135.257 51.7898 135.04 51.6886C131.437 50.0223 128.395 47.6377 126.247 44.7927C124.026 41.8528 122.81 38.4777 122.731 35.0321C122.728 34.9119 122.727 34.7895 122.727 34.6669C122.727 30.4885 124.349 26.4982 127.418 23.1268C130.037 20.2509 133.582 17.9897 137.67 16.5878C140.764 15.5267 144.056 14.9889 147.453 14.9889C150.85 14.9889 154.142 15.5267 157.236 16.5878C161.541 18.0651 165.221 20.4784 167.876 23.5669C170.691 26.841 172.179 30.6794 172.179 34.6669C172.179 34.7895 172.178 34.9119 172.175 35.033C172.086 38.887 170.6 42.5985 167.876 45.7653C165.808 48.1734 163.037 50.223 159.864 51.6922C156.11 53.4276 151.818 54.3448 147.453 54.3448C146.116 54.3448 144.775 54.2587 143.465 54.0885L139.016 58.5764C138.723 58.8717 138.337 59.0289 137.939 59.0289ZM147.453 15.7531C144.14 15.7531 140.932 16.2772 137.918 17.3107C133.951 18.6712 130.516 20.8604 127.983 23.6416C125.044 26.8697 123.491 30.6824 123.491 34.6672C123.491 34.7832 123.492 34.8993 123.495 35.0139C123.648 41.6561 128.084 47.6306 135.363 50.996C135.633 51.1225 135.911 51.2455 136.214 51.3727L136.418 51.4582L137.184 57.5993C137.22 57.8944 137.41 58.1278 137.691 58.2235C137.971 58.3191 138.264 58.2502 138.474 58.0388L143.19 53.281L143.379 53.3065C144.715 53.4888 146.086 53.581 147.453 53.581C151.709 53.581 155.889 52.6883 159.544 50.9991C162.618 49.5756 165.3 47.5935 167.298 45.2675C169.905 42.2362 171.327 38.6908 171.411 35.0149C171.414 34.8995 171.416 34.7834 171.416 34.6672C171.416 30.865 169.992 27.1988 167.298 24.0654C164.73 21.0799 161.166 18.7441 156.989 17.3109C153.974 16.2772 150.766 15.7531 147.453 15.7531Z" fill="#B1BEC6"/>
<g opacity="0.5">
<path d="M141.173 33.1304V36.412C141.173 38.843 141.717 40.7234 142.812 42.0442C143.777 43.2072 145.091 43.8627 146.755 43.9958C146.975 44.0144 147.201 44.0237 147.433 44.0237H147.569C149.508 43.9928 151.014 43.3279 152.087 42.032C153.182 40.702 153.733 38.8308 153.733 36.4122V33.1213C153.733 31.8129 153.575 30.6686 153.256 29.6819C153.222 29.5706 153.185 29.4592 153.145 29.3509C152.891 28.6673 152.554 28.0674 152.137 27.5477C152.124 27.5292 152.109 27.5106 152.093 27.4921C151.694 27.0096 151.237 26.6137 150.717 26.3075C149.814 25.7756 148.728 25.5095 147.457 25.5095H147.451C147.213 25.5095 146.981 25.5219 146.755 25.5374C145.094 25.6797 143.78 26.3354 142.818 27.5015C142.382 28.0303 142.032 28.649 141.773 29.3511C141.371 30.4117 141.173 31.6737 141.173 33.1304ZM145.343 32.5887C145.343 31.2932 145.513 30.3263 145.849 29.6867C146.186 29.0488 146.722 28.7296 147.453 28.7281H147.459C148.177 28.7281 148.698 29.0243 149.025 29.6183C149.35 30.2123 149.526 31.1125 149.55 32.3168V36.9197C149.55 38.2641 149.381 39.2472 149.043 39.8704C148.707 40.4889 148.177 40.7998 147.452 40.8046H147.434C146.725 40.8046 146.201 40.5019 145.862 39.8949C145.523 39.2894 145.351 38.3388 145.343 37.0432V32.5887H145.343Z" fill="#B1BEC6"/>
</g>
<path d="M147.433 44.4057C147.192 44.4057 146.953 44.396 146.723 44.3765C144.967 44.2361 143.552 43.5334 142.518 42.2883C141.372 40.9056 140.791 38.9288 140.791 36.4122V33.1306C140.791 31.6267 141.001 30.3095 141.416 29.2157C141.689 28.4778 142.062 27.8185 142.524 27.2585C143.55 26.0149 144.962 25.3078 146.723 25.1569C146.938 25.1422 147.186 25.1277 147.452 25.1277C148.791 25.1277 149.953 25.4138 150.912 25.9786C151.464 26.3041 151.961 26.7313 152.388 27.2489C152.407 27.2717 152.426 27.2955 152.443 27.3192C152.883 27.8693 153.24 28.508 153.504 29.2181C153.546 29.3333 153.586 29.4519 153.622 29.5703C153.949 30.5817 154.115 31.7781 154.115 33.1212V36.4122C154.115 38.9059 153.532 40.8783 152.383 42.2747C151.238 43.6564 149.621 44.373 147.575 44.4057H147.433ZM147.458 25.8915C147.209 25.8915 146.977 25.9051 146.781 25.9184C145.24 26.0506 144.003 26.665 143.113 27.7444C142.706 28.2381 142.375 28.8232 142.131 29.4834C141.748 30.4933 141.555 31.7191 141.555 33.1304V36.412C141.555 38.7458 142.077 40.5586 143.106 41.8003C144.002 42.8808 145.241 43.4914 146.786 43.615C146.996 43.6327 147.213 43.6417 147.433 43.6417H147.569C149.401 43.6125 150.785 43.006 151.793 41.788C152.827 40.533 153.351 38.7238 153.351 36.412V33.121C153.351 31.8578 153.197 30.7402 152.893 29.799C152.86 29.6891 152.825 29.5849 152.787 29.4836C152.55 28.8461 152.232 28.2752 151.839 27.787L151.819 27.7589C151.814 27.7528 151.807 27.7448 151.8 27.7367C151.428 27.2864 150.999 26.9168 150.523 26.6366C149.684 26.1423 148.653 25.8915 147.458 25.8915ZM147.454 41.1868H147.435C146.591 41.1868 145.932 40.8044 145.529 40.0811C145.156 39.4135 144.97 38.4205 144.961 37.0459V32.5887C144.961 31.2191 145.141 30.2115 145.511 29.5087C145.912 28.7498 146.583 28.3479 147.452 28.346C148.31 28.346 148.967 28.7223 149.359 29.434C149.719 30.0906 149.906 31.0309 149.932 32.3091L149.932 36.9198C149.932 38.3414 149.751 39.3664 149.378 40.053C148.98 40.7889 148.314 41.181 147.455 41.1868H147.454ZM147.459 29.11C146.861 29.1114 146.459 29.3513 146.187 29.8651C145.881 30.4468 145.725 31.3633 145.725 32.5887V37.0434C145.733 38.2662 145.891 39.1637 146.196 39.7086C146.468 40.1961 146.861 40.4228 147.435 40.4228C148.039 40.419 148.438 40.1856 148.707 39.6886C149.014 39.1244 149.169 38.193 149.169 36.9198V32.3169C149.146 31.1885 148.985 30.3397 148.69 29.802C148.43 29.3301 148.039 29.11 147.459 29.11Z" fill="#B1BEC6"/>
<path d="M87.7163 150.038C87.7144 150.038 87.7125 150.038 87.7106 150.038C86.3067 150.017 84.943 149.874 83.657 149.614C83.4501 149.572 83.3166 149.37 83.3584 149.164C83.4005 148.957 83.6006 148.822 83.8086 148.865C85.0484 149.116 86.365 149.253 87.7218 149.274C87.9329 149.277 88.1013 149.451 88.0981 149.661C88.095 149.871 87.9247 150.038 87.7163 150.038ZM91.7156 149.79C91.5271 149.79 91.3632 149.651 91.3375 149.459C91.3096 149.25 91.4563 149.057 91.6654 149.029C92.9243 148.861 94.2326 148.603 95.5544 148.264C95.7576 148.212 95.9669 148.334 96.0194 148.538C96.072 148.743 95.9488 148.951 95.7446 149.004C94.3938 149.351 93.0555 149.614 91.767 149.787C91.7496 149.789 91.7324 149.79 91.7156 149.79ZM79.9197 148.405C79.8662 148.405 79.8118 148.393 79.76 148.369C78.3812 147.734 77.2432 146.933 76.3776 145.991C76.2349 145.836 76.2452 145.594 76.4005 145.451C76.556 145.308 76.7976 145.319 76.9403 145.474C77.7371 146.342 78.7933 147.082 80.0797 147.675C80.2713 147.764 80.355 147.991 80.2667 148.182C80.2023 148.322 80.0643 148.405 79.9197 148.405ZM99.4968 147.887C99.3354 147.887 99.1856 147.784 99.1333 147.622C99.0686 147.421 99.1788 147.206 99.3795 147.141C100.625 146.739 101.892 146.295 103.145 145.821C103.343 145.746 103.563 145.846 103.638 146.043C103.713 146.24 103.613 146.461 103.416 146.535C102.15 147.014 100.871 147.463 99.6141 147.868C99.5753 147.881 99.5358 147.887 99.4968 147.887ZM61.4832 147.104C61.2748 147.104 61.1045 146.937 61.1012 146.728C61.0981 146.517 61.2666 146.343 61.4775 146.34C62.8015 146.321 64.1417 146.26 65.461 146.162C65.673 146.145 65.8546 146.304 65.8705 146.514C65.8863 146.724 65.7284 146.908 65.5181 146.923C64.1836 147.023 62.828 147.084 61.4887 147.104C61.487 147.104 61.4851 147.104 61.4832 147.104ZM57.4735 147.043C57.4676 147.043 57.4617 147.043 57.4558 147.042C56.1132 146.981 54.76 146.878 53.4337 146.736C53.224 146.714 53.0721 146.525 53.0945 146.316C53.117 146.106 53.3065 145.954 53.5151 145.977C54.8259 146.117 56.1635 146.219 57.4907 146.279C57.7014 146.289 57.8645 146.467 57.855 146.678C57.8454 146.883 57.6766 147.043 57.4735 147.043ZM69.4777 146.505C69.2896 146.505 69.1257 146.366 69.0997 146.174C69.0714 145.965 69.2177 145.773 69.4267 145.744C70.7415 145.566 72.0648 145.345 73.3594 145.088C73.5676 145.046 73.7676 145.181 73.8086 145.388C73.8497 145.595 73.7152 145.796 73.5084 145.837C72.1985 146.097 70.86 146.321 69.5296 146.501C69.5121 146.504 69.4949 146.505 69.4777 146.505ZM49.5027 146.188C49.4813 146.188 49.4598 146.187 49.4382 146.183C48.1119 145.957 46.7816 145.686 45.4845 145.378C45.2791 145.329 45.1523 145.124 45.201 144.918C45.2497 144.713 45.4558 144.587 45.661 144.635C46.9422 144.939 48.2563 145.207 49.5665 145.43C49.7745 145.465 49.9143 145.663 49.879 145.871C49.8469 146.057 49.6855 146.188 49.5027 146.188ZM106.997 145.053C106.849 145.053 106.708 144.967 106.646 144.823C106.562 144.629 106.651 144.404 106.845 144.32C108.05 143.799 109.271 143.239 110.474 142.654C110.664 142.562 110.893 142.641 110.985 142.831C111.077 143.021 110.998 143.249 110.808 143.341C109.595 143.931 108.364 144.496 107.148 145.022C107.099 145.043 107.047 145.053 106.997 145.053ZM77.3398 144.934C77.1737 144.934 77.0209 144.825 76.9729 144.657C76.9147 144.455 77.0319 144.243 77.2348 144.185C78.7739 143.744 79.8987 143.202 80.6735 142.529C80.8326 142.391 81.0741 142.408 81.2124 142.567C81.3508 142.726 81.3338 142.967 81.1745 143.106C80.3137 143.853 79.094 144.447 77.4454 144.919C77.4101 144.93 77.3746 144.934 77.3398 144.934ZM41.7034 144.335C41.6662 144.335 41.6282 144.329 41.5907 144.318C40.2984 143.919 39.0155 143.468 37.7774 142.978C37.5813 142.901 37.4852 142.679 37.5627 142.483C37.6405 142.286 37.862 142.19 38.0586 142.268C39.2785 142.75 40.5427 143.195 41.8161 143.587C42.0176 143.65 42.1307 143.863 42.0684 144.065C42.0176 144.229 41.8665 144.335 41.7034 144.335ZM75.0419 142.511C74.8536 142.511 74.6895 142.371 74.6637 142.179C74.62 141.852 74.5976 141.524 74.5976 141.203C74.5976 139.979 74.9116 138.894 75.5053 138.065C75.6281 137.893 75.8668 137.854 76.0382 137.977C76.2097 138.1 76.2492 138.338 76.1262 138.51C75.626 139.208 75.3616 140.139 75.3615 141.203C75.3615 141.49 75.3813 141.784 75.4209 142.078C75.4487 142.287 75.3021 142.479 75.0931 142.507C75.0759 142.51 75.0587 142.511 75.0419 142.511ZM114.211 141.553C114.075 141.553 113.944 141.48 113.875 141.351C113.775 141.166 113.844 140.934 114.03 140.834C115.188 140.212 116.359 139.551 117.511 138.872C117.693 138.765 117.927 138.825 118.034 139.007C118.141 139.189 118.081 139.423 117.899 139.53C116.738 140.215 115.558 140.88 114.392 141.507C114.334 141.538 114.273 141.553 114.211 141.553ZM34.2516 141.376C34.1945 141.376 34.1364 141.363 34.0818 141.336C32.8424 140.72 31.6532 140.056 30.5471 139.362C30.3684 139.25 30.3145 139.014 30.4266 138.835C30.5387 138.656 30.7746 138.603 30.9532 138.715C32.0381 139.395 33.2051 140.047 34.4219 140.652C34.6108 140.746 34.688 140.975 34.594 141.164C34.5272 141.298 34.392 141.376 34.2516 141.376ZM82.1893 139.618C82.0195 139.618 81.8646 139.504 81.8199 139.332C81.513 138.152 80.4988 137.277 79.296 137.154C79.0861 137.132 78.9333 136.945 78.9547 136.735C78.9761 136.525 79.1633 136.371 79.3736 136.394C80.892 136.549 82.1723 137.653 82.5593 139.14C82.6124 139.344 82.49 139.552 82.2858 139.606C82.2535 139.614 82.221 139.618 82.1893 139.618ZM121.122 137.481C120.996 137.481 120.873 137.419 120.8 137.305C120.686 137.127 120.738 136.891 120.916 136.777C122.025 136.066 123.144 135.319 124.241 134.558C124.415 134.438 124.653 134.481 124.773 134.654C124.893 134.828 124.85 135.066 124.677 135.186C123.571 135.952 122.445 136.704 121.328 137.42C121.264 137.461 121.192 137.481 121.122 137.481ZM27.4829 137.096C27.3985 137.096 27.3135 137.068 27.2428 137.011C26.1528 136.128 25.1552 135.192 24.2781 134.231C24.1358 134.075 24.1469 133.833 24.303 133.691C24.4588 133.549 24.7004 133.56 24.8425 133.716C25.694 134.649 26.6633 135.558 27.7238 136.417C27.8876 136.55 27.913 136.79 27.7801 136.954C27.7045 137.047 27.5943 137.096 27.4829 137.096ZM127.717 132.911C127.6 132.911 127.485 132.858 127.41 132.757C127.284 132.588 127.319 132.348 127.488 132.222C128.547 131.432 129.611 130.61 130.653 129.776C130.818 129.645 131.058 129.671 131.19 129.836C131.322 130.001 131.295 130.241 131.13 130.373C130.082 131.212 129.01 132.04 127.945 132.835C127.876 132.886 127.796 132.911 127.717 132.911ZM22.1412 131.166C22.0131 131.166 21.888 131.101 21.8156 130.984C21.0871 129.802 20.4959 128.562 20.0587 127.298C19.9898 127.098 20.0954 126.881 20.2948 126.812C20.4938 126.743 20.7118 126.848 20.7807 127.048C21.1998 128.26 21.7667 129.449 22.4659 130.583C22.5767 130.763 22.5207 130.998 22.3412 131.109C22.2787 131.148 22.2096 131.166 22.1412 131.166ZM133.981 127.898C133.873 127.898 133.766 127.853 133.691 127.765C133.553 127.604 133.572 127.363 133.732 127.226C134.801 126.312 135.783 125.447 136.736 124.583C136.892 124.441 137.134 124.453 137.276 124.61C137.418 124.766 137.406 125.007 137.249 125.149C136.291 126.018 135.303 126.887 134.229 127.807C134.157 127.868 134.069 127.898 133.981 127.898ZM19.5581 123.65C19.3643 123.65 19.1983 123.503 19.1786 123.306C19.1185 122.71 19.0879 122.097 19.0879 121.485C19.0879 120.743 19.1328 119.981 19.2212 119.221C19.2455 119.012 19.4363 118.86 19.6447 118.886C19.8542 118.91 20.0043 119.1 19.9801 119.309C19.8951 120.04 19.8519 120.772 19.8519 121.485C19.8519 122.072 19.8811 122.659 19.9386 123.23C19.9598 123.44 19.8068 123.627 19.5969 123.648C19.5839 123.649 19.5709 123.65 19.5581 123.65ZM139.916 122.504C139.817 122.504 139.718 122.465 139.643 122.388C139.496 122.237 139.499 121.995 139.65 121.848C140.629 120.894 141.572 119.936 142.451 119.001C142.595 118.847 142.837 118.839 142.991 118.984C143.144 119.129 143.152 119.37 143.007 119.524C142.121 120.467 141.17 121.433 140.183 122.395C140.109 122.467 140.013 122.504 139.916 122.504ZM145.402 116.652C145.314 116.652 145.227 116.623 145.155 116.562C144.994 116.426 144.974 116.185 145.11 116.024C145.989 114.985 146.824 113.934 147.592 112.902C147.718 112.733 147.957 112.698 148.126 112.824C148.296 112.95 148.331 113.189 148.205 113.358C147.427 114.403 146.582 115.466 145.693 116.517C145.618 116.606 145.51 116.652 145.402 116.652ZM20.4344 115.729C20.3974 115.729 20.3596 115.724 20.3221 115.712C20.1204 115.65 20.0072 115.437 20.0692 115.235C20.4576 113.971 20.962 112.699 21.5686 111.454C21.6609 111.265 21.8893 111.185 22.0793 111.278C22.269 111.37 22.3479 111.599 22.2554 111.789C21.6662 112.998 21.1765 114.233 20.7996 115.459C20.749 115.623 20.5977 115.729 20.4344 115.729ZM150.176 110.21C150.106 110.21 150.035 110.191 149.972 110.151C149.794 110.037 149.741 109.802 149.854 109.623C150.58 108.482 151.251 107.323 151.847 106.181C151.944 105.994 152.175 105.921 152.362 106.019C152.549 106.117 152.622 106.347 152.524 106.534C151.918 107.696 151.237 108.873 150.499 110.033C150.426 110.148 150.303 110.21 150.176 110.21ZM23.9166 108.533C23.8432 108.533 23.7689 108.512 23.7036 108.468C23.5286 108.35 23.4822 108.112 23.6003 107.937C24.3583 106.812 25.1963 105.734 26.0909 104.732C26.2315 104.574 26.4731 104.561 26.6303 104.701C26.7877 104.842 26.8012 105.083 26.6608 105.24C25.7891 106.217 24.9728 107.268 24.234 108.364C24.1599 108.474 24.0394 108.533 23.9166 108.533ZM153.868 103.101C153.82 103.101 153.772 103.092 153.725 103.073C153.529 102.994 153.434 102.771 153.513 102.576C154.014 101.334 154.445 100.073 154.796 98.8244C154.853 98.6213 155.064 98.5029 155.267 98.5598C155.47 98.6169 155.588 98.8278 155.531 99.031C155.173 100.306 154.733 101.594 154.222 102.861C154.162 103.01 154.019 103.101 153.868 103.101ZM156.02 95.3971C156.001 95.3971 155.981 95.3955 155.961 95.3923C155.752 95.3596 155.61 95.164 155.643 94.9557C155.669 94.784 155.695 94.6117 155.72 94.439L155.777 94.015C155.805 93.806 155.998 93.6592 156.207 93.6876C156.416 93.7159 156.562 93.9082 156.534 94.1174L156.476 94.5433C156.451 94.7224 156.425 94.8986 156.397 95.0743C156.368 95.2626 156.205 95.3971 156.02 95.3971Z" fill="#B1BEC6"/>
<g opacity="0.75">
<path d="M158.596 75.143C157.904 75.5364 157.23 76.1329 156.626 76.8891C155.76 77.0633 154.844 77.3477 153.915 77.7482C152.589 78.3172 151.422 79.0441 150.505 79.8221C148.433 78.7452 147.191 77.2415 147.491 75.8924C147.918 73.9492 151.379 73.0582 155.22 73.9041C156.488 74.1851 157.64 74.6189 158.596 75.143Z" fill="#B1BEC6"/>
</g>
<path d="M150.557 80.2794L150.33 80.1612C148.02 78.9607 146.789 77.2935 147.118 75.8098C147.358 74.7226 148.374 73.8958 149.981 73.4825C151.498 73.0923 153.388 73.1093 155.302 73.5312C156.564 73.8106 157.767 74.2522 158.781 74.8082L159.38 75.1373L158.786 75.4754C158.137 75.8436 157.494 76.4151 156.925 77.1275L156.838 77.2364L156.702 77.2639C155.835 77.4383 154.948 77.7192 154.067 78.0993C152.822 78.6334 151.676 79.3297 150.753 80.1136L150.557 80.2794ZM152.383 73.9649C151.587 73.9649 150.839 74.0505 150.171 74.2222C148.858 74.5603 148.039 75.1824 147.864 75.9745C147.627 77.0454 148.64 78.3597 150.46 79.3639C151.403 78.5997 152.54 77.9227 153.765 77.3972C154.649 77.016 155.54 76.7287 156.416 76.5425C156.856 76.0083 157.337 75.5478 157.834 75.1839C157.016 74.7992 156.096 74.4892 155.138 74.277C154.194 74.0692 153.26 73.9649 152.383 73.9649Z" fill="#B1BEC6"/>
<path d="M163.372 83.3803C162.114 87.3655 159.158 89.962 156.771 89.1792C155.347 88.7136 154.45 87.1499 154.222 85.1201C154.905 84.9486 155.617 84.7074 156.334 84.4002C160.02 82.8132 162.469 80.0387 161.802 78.2023C161.662 77.8218 161.405 77.5128 161.047 77.275C160.105 76.6481 158.49 76.5142 156.626 76.8892C157.23 76.1332 157.904 75.5365 158.597 75.143C158.6 75.1417 158.6 75.1417 158.6 75.1417C159.513 74.6224 160.458 74.4579 161.329 74.7431C163.716 75.5258 164.631 79.3909 163.372 83.3803Z" fill="#B1BEC6"/>
<g opacity="0.5">
<path d="M154.223 85.1196C154.904 84.9486 155.618 84.707 156.335 84.4008C160.021 82.8132 162.47 80.0386 161.803 78.2023C161.663 77.8214 161.406 77.512 161.047 77.2742C160.106 76.6476 158.491 76.5139 156.627 76.8896C155.76 77.0632 154.845 77.3483 153.916 77.7485C152.59 78.3184 151.423 79.0435 150.507 79.822C148.872 81.2079 148.021 82.7659 148.45 83.942C148.987 85.4232 151.382 85.8452 154.223 85.1196Z" fill="#B1BEC6"/>
</g>
<path d="M151.694 85.8469C149.854 85.8469 148.508 85.2223 148.091 84.0721C147.619 82.7798 148.43 81.0817 150.26 79.5305C151.235 78.7018 152.447 77.964 153.764 77.3975C154.699 76.9948 155.637 76.698 156.552 76.5148C158.525 76.1172 160.24 76.2778 161.258 76.9561C161.691 77.2426 161.995 77.6175 162.161 78.0702C162.908 80.1253 160.415 83.0595 156.486 84.7515C155.756 85.0634 155.027 85.3117 154.317 85.4896C153.374 85.7306 152.488 85.8469 151.694 85.8469ZM158.586 77.0611C158.011 77.0611 157.376 77.1281 156.702 77.2639C155.839 77.4368 154.952 77.7178 154.067 78.0994C152.818 78.6363 151.672 79.3325 150.754 80.1131C149.202 81.4291 148.457 82.8459 148.809 83.8112C149.258 85.0493 151.445 85.4349 154.128 84.7496L154.13 84.7492C154.801 84.5812 155.492 84.3457 156.185 84.0498C159.623 82.569 162.031 79.9507 161.444 78.3328C161.335 78.0375 161.13 77.7879 160.836 77.5927C160.307 77.2406 159.527 77.0611 158.586 77.0611Z" fill="#B1BEC6"/>
<g opacity="0.25">
<path d="M160.441 81.6743C160.646 81.4632 160.831 81.2503 160.996 81.0371C160.831 81.2503 160.646 81.463 160.441 81.6743Z" fill="#B1BEC6"/>
</g>
<g opacity="0.25">
<path d="M153.619 77.8826C152.992 78.1677 152.405 78.4869 151.865 78.8295C152.405 78.4871 152.992 78.1681 153.619 77.8826Z" fill="#B1BEC6"/>
</g>
<g opacity="0.25">
<path d="M27.9677 39.0933C29.1221 37.9628 30.6572 37.201 32.3974 37.0309L50.7212 35.2337L50.27 30.9639C50.0708 29.073 51.442 27.3796 53.3308 27.1804L61.8765 26.2779C61.8746 26.2485 61.8746 26.2174 61.8746 26.1861C61.8746 21.3654 66.1503 17.4587 71.4242 17.4587C75.9832 17.4587 79.798 20.3789 80.7473 24.2854L90.2305 23.2854C92.1212 23.0861 93.8148 24.4573 94.014 26.3461L94.4984 30.9422L109.419 29.4791C113.303 29.0983 116.811 31.8074 117.422 35.6612L119.075 46.0703C120.973 44.6894 123.159 43.653 125.531 43.0586C124.043 40.6215 123.18 37.8995 123.114 35.0231C123.111 34.9052 123.11 34.786 123.11 34.6667C123.11 30.4547 124.813 26.5568 127.702 23.3839C130.257 20.5779 133.74 18.3398 137.795 16.9489C140.755 15.9341 144.021 15.3707 147.454 15.3707C150.887 15.3707 154.153 15.934 157.113 16.9489C161.374 18.4108 165.003 20.809 167.588 23.8158C168.698 25.1071 169.613 26.5123 170.304 28.0025C170.501 26.9682 170.604 25.9028 170.604 24.8143C170.604 15.0544 162.355 7.14185 152.178 7.14185H38.8242C33.7357 7.14185 29.1284 9.11965 25.7936 12.3178C22.4587 15.5159 20.3965 19.9345 20.3965 24.8143C20.3965 30.6816 23.3788 35.8793 27.9677 39.0933Z" fill="#B1BEC6"/>
</g>
<g opacity="0.25">
<path d="M163.767 81.7621C163.675 82.2943 163.545 82.8359 163.373 83.3801C162.115 87.3653 159.159 89.9618 156.772 89.179C155.349 88.7134 154.451 87.1497 154.223 85.1199C154.659 85.0107 155.107 84.8697 155.56 84.7047C155.107 84.8695 154.658 85.0105 154.224 85.1193C151.383 85.845 148.988 85.423 148.451 83.9418C148.021 82.7655 148.873 81.2077 150.508 79.8218C150.696 79.6615 150.898 79.5045 151.107 79.3498C150.897 79.5047 150.696 79.6619 150.507 79.8221C149.405 79.2495 148.541 78.5556 148.016 77.8291H130.202C128.008 77.8291 125.904 77.4606 123.953 76.786L130.375 117.221C133.562 114.692 137.652 113.172 142.112 113.172H152.178C157.267 113.172 161.872 111.195 165.207 107.997C168.542 104.798 170.604 100.38 170.604 95.5C170.604 89.9516 167.938 85.0019 163.767 81.7621Z" fill="#B1BEC6"/>
</g>
<g opacity="0.25">
<path d="M152.178 148.514H142.112C139.643 148.514 137.288 148.047 135.136 147.203L135.304 148.257C135.673 150.581 134.913 152.82 133.432 154.419C133.43 154.425 133.425 154.431 133.419 154.435L127.201 161.813L127.074 161.963C126.512 162.619 125.834 163.18 125.063 163.608C124.293 164.037 123.432 164.334 122.506 164.463L43.5107 175.556C39.4693 176.124 35.7347 173.3 35.1799 169.255L32.4856 149.587C29.9461 150.479 27.668 151.891 25.7926 153.69C22.4577 156.888 20.3955 161.307 20.3955 166.186C20.3955 175.946 28.6461 183.857 38.8232 183.857H152.178C157.266 183.857 161.872 181.88 165.207 178.682C168.541 175.483 170.604 171.067 170.604 166.186C170.604 156.427 162.355 148.514 152.178 148.514Z" fill="#B1BEC6"/>
</g>
<g opacity="0.25">
<path d="M26.9248 108.993L23.6943 85.4104C21.6154 88.2712 20.3955 91.7485 20.3955 95.5C20.3955 100.91 22.9316 105.752 26.9248 108.993Z" fill="#B1BEC6"/>
</g>
</svg>
