<svg width="24" height="24" viewBox="0 0 24 24" fill="none" xmlns="http://www.w3.org/2000/svg">
<path d="M12 21.0002C10.7613 21.0002 9.59467 20.7636 8.50001 20.2902C7.40534 19.8162 6.45201 19.1729 5.64001 18.3602C4.82801 17.5476 4.18467 16.5942 3.71001 15.5002C3.23534 14.4062 2.99867 13.2396 3.00001 12.0002C3.00001 10.7576 3.23667 9.58991 3.71001 8.49724C4.18401 7.40391 4.82734 6.45158 5.64001 5.64024C6.45267 4.82891 7.40601 4.18558 8.50001 3.71024C9.59467 3.23691 10.7613 3.00024 12 3.00024C13.2427 3.00024 14.4103 3.23691 15.503 3.71024C16.5963 4.18424 17.549 4.82758 18.361 5.64024C19.173 6.45291 19.816 7.40524 20.29 8.49724C20.7633 9.59058 21 10.7582 21 12.0002C21 13.2389 20.7633 14.4056 20.29 15.5002C19.816 16.5949 19.1727 17.5482 18.36 18.3602C17.5473 19.1722 16.595 19.8156 15.503 20.2902C14.411 20.7649 13.2433 21.0016 12 21.0002ZM12 20.0082C12.5867 19.2542 13.0707 18.5139 13.452 17.7872C13.8327 17.0606 14.1423 16.2472 14.381 15.3472H9.61901C9.88367 16.2979 10.1997 17.1366 10.567 17.8632C10.935 18.5899 11.4127 19.3049 12 20.0082ZM10.727 19.8582C10.2603 19.3082 9.83434 18.6282 9.44901 17.8182C9.06367 17.0089 8.77701 16.1849 8.58901 15.3462H4.75401C5.32734 16.5896 6.13967 17.6096 7.19101 18.4062C8.24301 19.2022 9.42167 19.6862 10.727 19.8582ZM13.273 19.8582C14.5783 19.6862 15.757 19.2022 16.809 18.4062C17.8603 17.6096 18.6727 16.5896 19.246 15.3462H15.412C15.1587 16.1976 14.8397 17.0279 14.455 17.8372C14.0697 18.6472 13.6757 19.3216 13.273 19.8582ZM4.34601 14.3472H8.38101C8.30501 13.9366 8.25167 13.5366 8.22101 13.1472C8.18901 12.7586 8.17301 12.3762 8.17301 12.0002C8.17301 11.6242 8.18867 11.2419 8.22001 10.8532C8.25134 10.4646 8.30467 10.0646 8.38001 9.65324H4.34701C4.23834 9.99991 4.15334 10.3776 4.09201 10.7862C4.03067 11.1942 4.00001 11.5989 4.00001 12.0002C4.00001 12.4016 4.03034 12.8066 4.09101 13.2152C4.15167 13.6239 4.23667 14.0009 4.34601 14.3462M9.38101 14.3462H14.619C14.695 13.9362 14.7483 13.5429 14.779 13.1662C14.811 12.7902 14.827 12.4016 14.827 12.0002C14.827 11.5989 14.8113 11.2102 14.78 10.8342C14.7487 10.4582 14.6953 10.0649 14.62 9.65424H9.38001C9.30467 10.0642 9.25134 10.4576 9.22001 10.8342C9.18867 11.2102 9.17301 11.5989 9.17301 12.0002C9.17301 12.4016 9.18867 12.7902 9.22001 13.1662C9.25134 13.5422 9.30567 13.9356 9.38101 14.3462ZM15.62 14.3462H19.654C19.7627 14.0002 19.8477 13.6232 19.909 13.2152C19.9697 12.8066 20 12.4016 20 12.0002C20 11.5989 19.9697 11.1939 19.909 10.7852C19.8483 10.3766 19.7633 9.99958 19.654 9.65424H15.619C15.695 10.0642 15.7483 10.4639 15.779 10.8532C15.811 11.2426 15.827 11.6249 15.827 12.0002C15.827 12.3756 15.8113 12.7579 15.78 13.1472C15.7487 13.5366 15.6953 13.9366 15.62 14.3472M15.412 8.65424H19.246C18.66 7.38491 17.8573 6.36491 16.838 5.59424C15.8187 4.82358 14.6303 4.33324 13.273 4.12324C13.7397 4.73724 14.1593 5.43958 14.532 6.23024C14.9047 7.02024 15.198 7.82824 15.412 8.65424ZM9.61901 8.65424H14.381C14.117 7.71558 13.7913 6.86691 13.404 6.10824C13.0167 5.34958 12.5487 4.64424 12 3.99224C11.4513 4.64358 10.9833 5.34891 10.596 6.10824C10.2087 6.86758 9.88234 7.71624 9.61901 8.65424ZM4.75501 8.65424H8.58901C8.80301 7.82891 9.09634 7.02091 9.46901 6.23024C9.84167 5.43958 10.2613 4.73724 10.728 4.12324C9.35867 4.33391 8.16734 4.82724 7.15401 5.60324C6.14067 6.38058 5.34067 7.39724 4.75401 8.65324" fill="#312124"/>
</svg>
