<svg width="25" height="24" viewBox="0 0 25 24" fill="none" xmlns="http://www.w3.org/2000/svg">
<path fill-rule="evenodd" clip-rule="evenodd" d="M12.6774 8.796V10.493C13.0327 9.95168 13.5226 9.5119 14.0989 9.21671C14.6753 8.92152 15.3184 8.78103 15.9654 8.809C19.4204 8.809 20.1674 10.969 20.1674 13.779V19.5H16.9674V14.428C16.9674 13.218 16.7234 11.662 14.8394 11.662C13.0124 11.662 12.7004 12.979 12.7004 14.338V19.5H9.51035V8.796H12.6774ZM7.36735 6.106C7.36696 6.423 7.27299 6.73284 7.09723 6.99665C6.92147 7.26047 6.67174 7.46653 6.37935 7.589C6.08708 7.71048 5.76527 7.74226 5.45488 7.68029C5.1445 7.61832 4.85957 7.4654 4.63635 7.241C4.41272 7.01646 4.26047 6.73081 4.19874 6.41997C4.13702 6.10913 4.16858 5.78698 4.28946 5.49403C4.41034 5.20108 4.61514 4.95041 4.8781 4.77354C5.14106 4.59667 5.45045 4.5015 5.76735 4.5C5.97797 4.5 6.18652 4.54158 6.38103 4.62236C6.57555 4.70315 6.7522 4.82154 6.90085 4.97075C7.0495 5.11996 7.16723 5.29705 7.24728 5.49186C7.32734 5.68668 7.36814 5.89538 7.36735 6.106Z" fill="#231F20"/>
<path d="M7.36699 8.80908H4.16699V19.5001H7.36699V8.80908Z" fill="#231F20"/>
</svg>
