<svg width="24" height="24" viewBox="0 0 24 24" fill="none" xmlns="http://www.w3.org/2000/svg">
<path d="M18.1582 4.84961C18.9508 4.84969 19.7113 5.16021 20.2725 5.71289L20.4717 5.92969C20.9081 6.45451 21.1503 7.11467 21.1504 7.7998V16.2002C21.1503 16.8853 20.9081 17.5455 20.4717 18.0703L20.2725 18.2871C19.7113 18.8398 18.9508 19.1503 18.1582 19.1504H5.8418C5.14803 19.1503 4.47875 18.9124 3.94629 18.4824L3.72754 18.2871C3.16622 17.7341 2.84966 16.9832 2.84961 16.2002V7.7998C2.84966 7.01676 3.16622 6.2659 3.72754 5.71289L3.94629 5.51758C4.47875 5.08764 5.14803 4.84968 5.8418 4.84961H18.1582ZM12.0811 12.3223L12 12.374L11.9189 12.3223L4.15527 7.36035C4.1188 7.50173 4.09767 7.65121 4.09766 7.7998V16.2002C4.09771 16.6546 4.28056 17.091 4.60742 17.4131L4.73535 17.5273C5.04569 17.7779 5.43637 17.9169 5.8418 17.917H18.1582C18.6215 17.9169 19.0656 17.7352 19.3926 17.4131L19.5078 17.2871C19.762 16.9816 19.9023 16.5979 19.9023 16.2002V7.7998C19.9023 7.65113 19.8803 7.5018 19.8438 7.36035L12.0811 12.3223ZM5.8418 6.08301C5.48033 6.08306 5.15826 6.18354 4.8916 6.36133L12 10.8887L19.1074 6.36133C18.8409 6.18382 18.5194 6.08306 18.1582 6.08301H5.8418Z" fill="#231F20" stroke="#231F20" stroke-width="0.3"/>
</svg>
