<svg width="18" height="18" viewBox="0 0 18 18" fill="none" xmlns="http://www.w3.org/2000/svg">
<path d="M15.75 12.2255V4.48773C15.75 4.1509 15.3935 3.93347 15.0941 4.08762L12.5101 5.41758C12.4073 5.47049 12.2881 5.4818 12.1772 5.44918L6.57278 3.80082C6.46187 3.7682 6.34266 3.77951 6.23987 3.83242L3.24406 5.37438C3.09419 5.45152 3 5.60594 3 5.77449V13.5123C3 13.8491 3.35646 14.0665 3.65594 13.9124L6.23987 12.5824C6.34266 12.5295 6.46187 12.5182 6.57278 12.5508L12.1772 14.1992C12.2881 14.2318 12.4073 14.2205 12.5101 14.1676L15.5059 12.6256C15.6558 12.5485 15.75 12.3941 15.75 12.2255Z" stroke="#231F20"/>
<path d="M12.75 14.25L12.75 5.25" stroke="#231F20"/>
<path d="M6.75 12.75V3.75" stroke="#231F20"/>
</svg>
