<svg width="32" height="32" viewBox="0 0 32 32" fill="none" xmlns="http://www.w3.org/2000/svg">
<path d="M16 2.66699C21.1547 2.66699 25.333 6.84534 25.333 12C25.333 18.8418 18.1912 22.8965 16.4023 23.8047C16.1485 23.9335 15.8515 23.9335 15.5977 23.8047C13.8088 22.8965 6.66699 18.8418 6.66699 12C6.66699 6.84534 10.8453 2.66699 16 2.66699ZM16 8C13.7909 8 12 9.79086 12 12C12 14.2091 13.7909 16 16 16C18.2091 16 20 14.2091 20 12C20 9.79086 18.2091 8 16 8Z" fill="#DE2348"/>
<path d="M24.0827 22C24.9019 22.6081 25.3332 23.2979 25.3332 24C25.3332 24.7021 24.9019 25.3919 24.0827 26C23.2636 26.6081 22.0854 27.113 20.6665 27.4641C19.2477 27.8152 17.6382 28 15.9998 28C14.3615 28 12.752 27.8152 11.3332 27.4641C9.91433 27.113 8.73611 26.6081 7.91693 26C7.09776 25.3919 6.6665 24.7021 6.6665 24C6.6665 23.2979 7.09776 22.6081 7.91693 22" stroke="#DE2348" stroke-width="2" stroke-linecap="round"/>
</svg>
