<svg width="24" height="24" viewBox="0 0 24 24" fill="none" xmlns="http://www.w3.org/2000/svg">
<path d="M11.5 6.07147C10.8257 6.07147 10.1666 6.27046 9.60601 6.64327C9.04539 7.01609 8.60844 7.54599 8.35041 8.16596C8.09238 8.78593 8.02487 9.46812 8.15641 10.1263C8.28795 10.7844 8.61264 11.389 9.08941 11.8635C9.56618 12.338 10.1736 12.6611 10.8349 12.7921C11.4962 12.923 12.1817 12.8558 12.8046 12.599C13.4275 12.3422 13.96 11.9073 14.3346 11.3493C14.7092 10.7914 14.9091 10.1354 14.9091 9.46436C14.9091 8.56451 14.5499 7.70151 13.9106 7.06522C13.2713 6.42893 12.4041 6.07147 11.5 6.07147ZM11.5 11.5001C11.0954 11.5001 10.7 11.3807 10.3636 11.157C10.0272 10.9333 9.76506 10.6154 9.61025 10.2434C9.45543 9.87142 9.41492 9.4621 9.49385 9.06721C9.57277 8.67231 9.76758 8.30958 10.0536 8.02488C10.3397 7.74018 10.7042 7.54629 11.101 7.46774C11.4977 7.38919 11.909 7.42951 12.2828 7.58359C12.6565 7.73767 12.976 7.99859 13.2007 8.33337C13.4255 8.66814 13.5455 9.06173 13.5455 9.46436C13.5455 10.0043 13.33 10.5221 12.9464 10.9038C12.5628 11.2856 12.0425 11.5001 11.5 11.5001ZM11.5 2C9.51157 2.00225 7.60522 2.78939 6.19919 4.18874C4.79316 5.58809 4.00226 7.48538 4 9.46436C4 12.1278 5.23665 14.9507 7.57955 17.6285C8.6323 18.8385 9.81715 19.9282 11.1122 20.8772C11.2269 20.9571 11.3634 21 11.5034 21C11.6434 21 11.78 20.9571 11.8946 20.8772C13.1873 19.9278 14.3698 18.8382 15.4205 17.6285C17.7599 14.9507 19 12.1278 19 9.46436C18.9977 7.48538 18.2068 5.58809 16.8008 4.18874C15.3948 2.78939 13.4884 2.00225 11.5 2ZM11.5 19.4734C10.0912 18.3707 5.36364 14.3204 5.36364 9.46436C5.36364 7.84463 6.01014 6.29124 7.16094 5.14591C8.31173 4.00059 9.87254 3.35716 11.5 3.35716C13.1275 3.35716 14.6883 4.00059 15.8391 5.14591C16.9899 6.29124 17.6364 7.84463 17.6364 9.46436C17.6364 14.3187 12.9088 18.3707 11.5 19.4734Z" fill="#231F20"/>
</svg>
