<svg width="24" height="24" viewBox="0 0 24 24" fill="none" xmlns="http://www.w3.org/2000/svg">
<path d="M4.49622 1.00059C3.80575 0.985594 3.12513 1.25372 2.65685 1.90013C1.75263 3.15075 1.54731 4.73325 1.80981 6.35981C2.07278 7.98638 2.79794 9.66919 3.80435 11.2067C5.5406 13.8598 8.10466 16.1051 10.7343 16.677V15.8004C8.49372 15.2145 6.11247 13.1895 4.51028 10.7473C3.55778 9.2895 2.88091 7.70044 2.64278 6.22388C2.40466 4.752 2.59919 3.42028 3.34028 2.39513C3.61966 2.00981 3.90325 1.857 4.2745 1.83825C4.39872 1.83216 4.53231 1.83825 4.67856 1.86075C5.26403 1.94044 6.01403 2.27466 6.82028 2.70544C8.30622 3.49856 9.95153 4.62544 11.5781 4.79888V3.94153C10.3031 3.74794 8.71403 2.76028 7.21872 1.96106C6.38903 1.51622 5.58278 1.13138 4.7906 1.02403C4.69216 1.01091 4.59513 1.00294 4.49622 1.00059ZM19.5 1.00059C19.4015 1.00059 19.3031 1.01044 19.2047 1.02403C18.4172 1.13138 17.6109 1.51622 16.7812 1.96106C15.2859 2.76028 13.6968 3.74794 12.4218 3.94153V4.79419C14.0484 4.62075 15.6937 3.49809 17.1797 2.70497C17.9859 2.27419 18.7359 1.93997 19.3218 1.86028C19.9078 1.78059 20.2875 1.88091 20.6578 2.39513C21.3984 3.42028 21.5953 4.752 21.3562 6.22388C21.1172 7.70044 20.4422 9.2895 19.4906 10.7473C17.8875 13.1895 15.5062 15.2145 13.2656 15.8004V16.677C15.8953 16.1051 18.4593 13.8598 20.1937 11.2067C21.2015 9.66919 21.9281 7.98638 22.1906 6.35981C22.4531 4.73325 22.2468 3.15075 21.3422 1.90059C20.8734 1.25372 20.1937 0.986063 19.5 1.00059ZM11.5781 15.9551V17.4739H12.4218V15.9551C12.2812 15.9645 12.1406 15.9739 12 15.9739C11.8593 15.9739 11.7187 15.9645 11.5781 15.9551ZM11.0015 18.3176L10.5093 18.6458L12 19.6395L13.4906 18.6458L12.9984 18.3176H11.0015ZM10.1718 19.4333V20.8582L11.2406 20.1458L10.1718 19.4333ZM13.8281 19.4333L12.7593 20.1458L13.8281 20.8582V19.4333ZM12 20.652L10.5093 21.6458L12 22.6395L13.4906 21.6458L12 20.652Z" fill="#231F20" fill-opacity="0.75"/>
</svg>
