<svg width="24" height="24" viewBox="0 0 24 24" fill="none" xmlns="http://www.w3.org/2000/svg">
<path d="M11.9624 17.9861H18.7724C19.0376 18.001 19.3021 17.9476 19.5409 17.8312C19.7796 17.7148 19.9846 17.5392 20.1362 17.3211C20.2878 17.103 20.381 16.8497 20.4069 16.5854C20.4329 16.3211 20.3907 16.0545 20.2844 15.8111C19.9244 14.7231 18.4894 13.4181 18.4894 12.1341C18.4894 9.2841 18.4894 8.5341 17.0864 6.8581C16.6317 6.31852 16.0681 5.88127 15.4324 5.5751L14.6494 5.1951C14.518 5.11579 14.4047 5.00988 14.3166 4.88416C14.2286 4.75843 14.1679 4.61569 14.1384 4.4651C14.0601 3.9575 13.7917 3.49868 13.3876 3.18168C12.9835 2.86469 12.474 2.71325 11.9624 2.7581C11.46 2.72816 10.9646 2.88643 10.5726 3.20203C10.1806 3.51763 9.9203 3.96794 9.84237 4.4651C9.80723 4.62079 9.73833 4.76688 9.64053 4.89302C9.54272 5.01916 9.41841 5.12228 9.27637 5.1951L8.49237 5.5751C7.85741 5.88151 7.29443 6.31874 6.84037 6.8581C5.43737 8.5341 5.43737 9.2841 5.43737 12.1341C5.43737 13.4181 4.06737 14.5921 3.70737 15.7451C3.49037 16.4421 3.37037 17.9861 5.18737 17.9861H11.9624Z" stroke="#231F20" stroke-opacity="0.75" stroke-width="1.5" stroke-linecap="round" stroke-linejoin="round"/>
<path d="M15.226 17.9861C15.2351 18.4172 15.1569 18.8457 14.9961 19.2457C14.8353 19.6458 14.5952 20.0092 14.2902 20.3141C13.9853 20.6189 13.6218 20.8589 13.2217 21.0196C12.8216 21.1803 12.393 21.2584 11.962 21.2491C11.531 21.2582 11.1026 21.1801 10.7027 21.0193C10.3027 20.8585 9.93942 20.6185 9.63467 20.3137C9.32991 20.0088 9.08999 19.6454 8.92935 19.2454C8.76872 18.8454 8.69069 18.417 8.69996 17.9861" stroke="#231F20" stroke-opacity="0.75" stroke-width="1.5" stroke-linecap="round" stroke-linejoin="round"/>
</svg>
