<svg width="24" height="24" viewBox="0 0 24 24" fill="none" xmlns="http://www.w3.org/2000/svg">
<path d="M23.0856 22.2254L20.6052 2.38225C20.5574 2.00061 20.3719 1.64956 20.0835 1.39504C19.7952 1.14052 19.4238 1.00004 19.0392 1H5.96076C5.57614 1.00004 5.20476 1.14052 4.9164 1.39504C4.62804 1.64956 4.44253 2.00061 4.39473 2.38225L1.91434 22.2254C1.88652 22.4475 1.90625 22.673 1.97223 22.8868C2.03821 23.1007 2.14893 23.2981 2.29703 23.466C2.44513 23.6338 2.62723 23.7682 2.83125 23.8603C3.03527 23.9523 3.25654 24 3.48037 24H8.06797C8.41908 24 8.76016 23.8829 9.03726 23.6673C9.31435 23.4516 9.51164 23.1498 9.59792 22.8094L12.5 11.598L15.4009 22.8094C15.4872 23.1499 15.6847 23.452 15.962 23.6676C16.2393 23.8833 16.5807 24.0002 16.932 24H21.5196C21.7434 24 21.9647 23.9523 22.1687 23.8603C22.3727 23.7682 22.5548 23.6338 22.7029 23.466C22.851 23.2981 22.9617 23.1007 23.0277 22.8868C23.0937 22.673 23.1134 22.4475 23.0856 22.2254ZM20.0787 9.07931C19.2806 8.96463 18.5389 8.60173 17.9585 8.04202C17.3782 7.48232 16.9887 6.75418 16.8452 5.96078H19.6897L20.0787 9.07931ZM5.96076 2.35294H19.0392C19.0944 2.35251 19.1479 2.37236 19.1894 2.40873C19.231 2.44509 19.2578 2.49545 19.2647 2.55025L19.5206 4.60784H5.47934L5.73527 2.55025C5.74217 2.49545 5.76894 2.44509 5.81051 2.40873C5.85207 2.37236 5.90553 2.35251 5.96076 2.35294ZM5.31022 5.96078H8.15478C8.01128 6.75418 7.62177 7.48232 7.04142 8.04202C6.46108 8.60173 5.71932 8.96463 4.92125 9.07931L5.31022 5.96078ZM8.28669 22.4768C8.27439 22.5255 8.2462 22.5687 8.20657 22.5995C8.16695 22.6303 8.11817 22.6471 8.06797 22.6471H3.48037C3.44823 22.6473 3.4164 22.6407 3.38703 22.6276C3.35766 22.6146 3.33142 22.5954 3.31006 22.5714C3.28871 22.5474 3.27274 22.5191 3.26322 22.4884C3.2537 22.4577 3.25086 22.4253 3.25488 22.3934L4.74875 10.4559C5.94014 10.3699 7.06549 9.87592 7.9352 9.05714C8.80492 8.23835 9.36585 7.14483 9.52351 5.96078H11.8235V8.80647L8.28669 22.4768ZM21.6887 22.5704C21.6676 22.5944 21.6416 22.6137 21.6124 22.6269C21.5832 22.6402 21.5516 22.647 21.5196 22.6471H16.932C16.8808 22.647 16.8312 22.6296 16.7912 22.5976C16.7513 22.5657 16.7234 22.5211 16.7121 22.4712L13.1764 8.80647V5.96078H15.4764C15.6341 7.14483 16.195 8.23835 17.0647 9.05714C17.9345 9.87592 19.0598 10.3699 20.2512 10.4559L21.7451 22.3934C21.7488 22.4252 21.7457 22.4574 21.736 22.488C21.7262 22.5185 21.7101 22.5466 21.6887 22.5704Z" fill="#231F20" fill-opacity="0.75"/>
</svg>
