<svg width="24" height="24" viewBox="0 0 24 24" fill="none" xmlns="http://www.w3.org/2000/svg">
<g clip-path="url(#clip0_1048_125)">
<path d="M3.73366 2.6665C3.45076 2.6665 3.17945 2.77888 2.97941 2.97892C2.77937 3.17896 2.66699 3.45027 2.66699 3.73317V7.99984H8.00033V2.6665H3.73366ZM6.66699 6.6665H4.00033V3.99984H6.66699V6.6665Z" fill="#231F20"/>
<path d="M2.66699 20.2667C2.66699 20.5496 2.77937 20.8209 2.97941 21.0209C3.17945 21.221 3.45076 21.3333 3.73366 21.3333H8.00033V16H2.66699V20.2667ZM4.00033 17.3333H6.66699V20H4.00033V17.3333Z" fill="#231F20"/>
<path d="M16 21.3333H20.2667C20.5496 21.3333 20.8209 21.221 21.0209 21.0209C21.221 20.8209 21.3333 20.5496 21.3333 20.2667V16H16V21.3333ZM17.3333 17.3333H20V20H17.3333V17.3333Z" fill="#231F20"/>
<path d="M20.2667 2.6665H16V7.99984H21.3333V3.73317C21.3333 3.45027 21.221 3.17896 21.0209 2.97892C20.8209 2.77888 20.5496 2.6665 20.2667 2.6665ZM20 6.6665H17.3333V3.99984H20V6.6665Z" fill="#231F20"/>
<path d="M13.3337 6.66683V5.3335H10.667V8.00016H12.0003V6.66683H13.3337Z" fill="#231F20"/>
<path d="M8 8H9.33333V9.33333H8V8Z" fill="#231F20"/>
<path d="M9.33301 9.3335H11.9997V10.6668H9.33301V9.3335Z" fill="#231F20"/>
<path d="M13.333 3.99984V5.33317H14.6663V2.6665H9.33301V5.33317H10.6663V3.99984H13.333Z" fill="#231F20"/>
<path d="M2.66699 9.3335H4.00033V12.0002H2.66699V9.3335Z" fill="#231F20"/>
<path d="M8.00033 10.6668V12.0002H6.66699V9.3335H5.33366V12.0002H4.00033V13.3335H2.66699V14.6668H5.33366V13.3335H6.66699V14.6668H8.00033V13.3335H9.33366V10.6668H8.00033Z" fill="#231F20"/>
<path d="M13.3333 10.6665H14.6667V11.9998H16V10.6665H17.3333V9.33317H14.6667V6.6665H13.3333V7.99984H12V9.33317H13.3333V10.6665Z" fill="#231F20"/>
<path d="M11.9997 19.9998H9.33301V21.3332H14.6663V19.9998H13.333V18.6665H11.9997V19.9998Z" fill="#231F20"/>
<path d="M14.667 13.3332V11.9998H13.3337V10.6665H12.0003V11.9998H10.667V13.3332H12.0003V14.6665H13.3337V13.3332H14.667Z" fill="#231F20"/>
<path d="M20 13.3335H21.3333V14.6668H20V13.3335Z" fill="#231F20"/>
<path d="M14.667 13.3335H18.667V14.6668H14.667V13.3335Z" fill="#231F20"/>
<path d="M19.9997 9.3335H18.6663V10.6668H17.333V12.0002H18.6663V13.3335H19.9997V12.0002H21.333V10.6668H19.9997V9.3335Z" fill="#231F20"/>
<path d="M13.333 14.6665H14.6663V18.6665H13.333V14.6665Z" fill="#231F20"/>
<path d="M9.33301 18.6668H10.6663V17.3335H11.9997V16.0002H10.6663V13.3335H9.33301V18.6668Z" fill="#231F20"/>
</g>
<defs>
<clipPath id="clip0_1048_125">
<rect width="24" height="24" fill="white"/>
</clipPath>
</defs>
</svg>
