<svg width="173" height="144" viewBox="0 0 173 144" fill="none" xmlns="http://www.w3.org/2000/svg">
<path d="M149.843 105.6C149.843 105.792 149.663 105.965 149.3 106.045H148.378C148.015 105.965 147.836 105.792 147.836 105.595C147.836 105.398 148.015 105.229 148.378 105.145H149.3C149.663 105.229 149.843 105.398 149.843 105.6Z" fill="#D0B9BA"/>
<path d="M158.957 105.6C158.957 105.792 158.55 105.965 157.725 106.045H155.629C154.805 105.965 154.397 105.792 154.397 105.595C154.397 105.398 154.805 105.229 155.629 105.145H157.725C158.55 105.229 158.957 105.398 158.957 105.6Z" fill="#D0B9BA"/>
<path d="M165.53 103.588C165.722 103.588 165.895 103.947 165.975 104.673V106.044H164.603C163.877 105.965 163.519 105.791 163.519 105.595C163.519 105.398 163.877 105.229 164.603 105.145H165.075V104.673C165.16 103.947 165.328 103.588 165.53 103.588Z" fill="#D0B9BA"/>
<path d="M165.532 95.8066C165.724 95.8066 165.897 96.1547 165.977 96.8584V98.6467C165.897 99.3497 165.724 99.6977 165.527 99.6977C165.33 99.6977 165.161 99.3497 165.077 98.6467V96.8584C165.161 96.1547 165.33 95.8066 165.532 95.8066Z" fill="#D0B9BA"/>
<path d="M165.532 88.0234C165.724 88.0234 165.897 88.3714 165.977 89.0751V90.8634C165.897 91.5664 165.724 91.9144 165.527 91.9144C165.33 91.9144 165.161 91.5664 165.077 90.8634V89.0751C165.161 88.3714 165.33 88.0234 165.532 88.0234Z" fill="#D0B9BA"/>
<path d="M165.532 80.2417C165.724 80.2417 165.897 80.5897 165.977 81.2933V83.0817C165.897 83.7847 165.724 84.1328 165.527 84.1328C165.33 84.1328 165.161 83.7847 165.077 83.0817V81.2933C165.161 80.5897 165.33 80.2417 165.532 80.2417Z" fill="#D0B9BA"/>
<path d="M165.532 72.4585C165.724 72.4585 165.897 72.8065 165.977 73.5103V75.2986C165.897 76.0016 165.724 76.3496 165.527 76.3496C165.33 76.3496 165.161 76.0016 165.077 75.2986V73.5103C165.161 72.8065 165.33 72.4585 165.532 72.4585Z" fill="#D0B9BA"/>
<path d="M165.532 64.6772C165.724 64.6772 165.897 65.0252 165.977 65.729V67.5173C165.897 68.2203 165.724 68.5683 165.527 68.5683C165.33 68.5683 165.161 68.2203 165.077 67.5173V65.729C165.161 65.0252 165.33 64.6772 165.532 64.6772Z" fill="#D0B9BA"/>
<path d="M165.532 56.896C165.724 56.896 165.897 57.2442 165.977 57.9478V59.7361C165.897 60.4391 165.724 60.7871 165.527 60.7871C165.33 60.7871 165.161 60.4391 165.077 59.7361V57.9478C165.161 57.2442 165.33 56.896 165.532 56.896Z" fill="#D0B9BA"/>
<path d="M165.532 49.1128C165.724 49.1128 165.897 49.4608 165.977 50.1644V51.9527C165.897 52.6557 165.724 53.0037 165.527 53.0037C165.33 53.0037 165.161 52.6557 165.077 51.9527V50.1644C165.161 49.4608 165.33 49.1128 165.532 49.1128Z" fill="#D0B9BA"/>
<path d="M163.519 43.2101C163.519 43.0181 163.877 42.8447 164.603 42.7651H165.975V44.1375C165.895 44.8627 165.722 45.2216 165.525 45.2216C165.328 45.2216 165.16 44.8627 165.075 44.1375V43.6647H164.603C163.877 43.5805 163.519 43.4118 163.519 43.2101Z" fill="#D0B9BA"/>
<path d="M156.142 43.2101C156.142 43.0181 156.472 42.8447 157.139 42.7651H158.834C159.5 42.8447 159.83 43.0181 159.83 43.215C159.83 43.4118 159.5 43.5805 158.834 43.6648H157.139C156.472 43.5805 156.142 43.4118 156.142 43.2101Z" fill="#D0B9BA"/>
<path d="M148.767 43.2111C148.767 43.0191 149.096 42.8457 149.764 42.7661H151.459C152.125 42.8456 152.455 43.0191 152.455 43.216C152.455 43.4128 152.125 43.5815 151.459 43.6657H149.764C149.096 43.5815 148.767 43.4128 148.767 43.2111Z" fill="#D0B9BA"/>
<path d="M141.386 43.2111C141.386 43.0191 141.716 42.8457 142.383 42.7661H144.078C144.744 42.8456 145.074 43.0191 145.074 43.216C145.074 43.4128 144.744 43.5815 144.078 43.6657H142.383C141.716 43.5815 141.386 43.4128 141.386 43.2111Z" fill="#D0B9BA"/>
<path d="M134.012 43.2111C134.012 43.0191 134.342 42.8457 135.009 42.7661H136.704C137.37 42.8456 137.7 43.0191 137.7 43.216C137.7 43.4128 137.37 43.5815 136.704 43.6657H135.009C134.342 43.5815 134.012 43.4128 134.012 43.2111Z" fill="#D0B9BA"/>
<path d="M126.635 43.2116C126.635 43.0196 126.965 42.8462 127.632 42.7666H129.327C129.993 42.8461 130.323 43.0195 130.323 43.2165C130.323 43.4133 129.993 43.582 129.327 43.6662H127.632C126.965 43.582 126.635 43.4133 126.635 43.2116Z" fill="#D0B9BA"/>
<path d="M120.946 41.209C121.138 41.209 121.311 41.5679 121.391 42.2936V42.7657H121.864C122.589 42.8452 122.948 43.0186 122.948 43.2156C122.948 43.4124 122.589 43.5811 121.864 43.6653H120.491V42.2936C120.576 41.5679 120.744 41.209 120.946 41.209Z" fill="#D0B9BA"/>
<path d="M120.946 34.2031C121.138 34.2031 121.311 34.5163 121.391 35.1497V36.7597C121.311 37.3927 121.138 37.7059 120.941 37.7059C120.744 37.7059 120.576 37.3927 120.491 36.7597V35.1497C120.576 34.5163 120.744 34.2031 120.946 34.2031Z" fill="#D0B9BA"/>
<path d="M120.946 27.1973C121.138 27.1973 121.311 27.5105 121.391 28.1439V29.7539C121.311 30.3868 121.138 30.7 120.941 30.7C120.744 30.7 120.576 30.3868 120.491 29.7539V28.1439C120.576 27.5105 120.744 27.1973 120.946 27.1973Z" fill="#D0B9BA"/>
<path d="M120.946 20.1929C121.138 20.1929 121.311 20.5061 121.391 21.1397V22.7495C121.311 23.3824 121.138 23.6956 120.941 23.6956C120.744 23.6956 120.576 23.3824 120.491 22.7495V21.1397C120.576 20.5061 120.744 20.1929 120.946 20.1929Z" fill="#D0B9BA"/>
<path d="M118.932 14.6781C118.932 14.486 119.291 14.3126 120.016 14.2329H121.388V15.6054C121.308 16.3305 121.135 16.6894 120.938 16.6894C120.741 16.6894 120.573 16.3304 120.488 15.6054V15.1327H120.016C119.291 15.0483 118.932 14.8796 118.932 14.6781Z" fill="#D0B9BA"/>
<path d="M110.718 14.679C110.718 14.487 111.085 14.3136 111.828 14.2339H113.716C114.458 14.3136 114.825 14.487 114.825 14.6838C114.825 14.8806 114.458 15.0493 113.716 15.1337H111.828C111.085 15.0493 110.718 14.8806 110.718 14.679Z" fill="#D0B9BA"/>
<path d="M102.502 14.6776C102.502 14.4855 102.869 14.3121 103.612 14.2324H105.5C106.242 14.3121 106.609 14.4855 106.609 14.6823C106.609 14.8791 106.242 15.0478 105.5 15.1322H103.612C102.869 15.0478 102.502 14.8791 102.502 14.6776Z" fill="#D0B9BA"/>
<path d="M94.2871 14.6781C94.2871 14.486 94.6545 14.3126 95.3973 14.2329H97.285C98.027 14.3126 98.3944 14.486 98.3944 14.6828C98.3944 14.8796 98.027 15.0483 97.285 15.1327H95.3973C94.6545 15.0483 94.2871 14.8796 94.2871 14.6781Z" fill="#D0B9BA"/>
<path d="M86.0703 14.6776C86.0703 14.4855 86.4377 14.3121 87.1804 14.2324H89.0681C89.8101 14.3121 90.1776 14.4855 90.1776 14.6823C90.1776 14.8791 89.8101 15.0478 89.0681 15.1322H87.1804C86.4377 15.0478 86.0703 14.8791 86.0703 14.6776Z" fill="#D0B9BA"/>
<path d="M77.8633 14.6776C77.8633 14.4855 78.2306 14.3121 78.9734 14.2324H80.8611C81.6032 14.3121 81.9706 14.4855 81.9706 14.6823C81.9706 14.8791 81.6032 15.0478 80.8611 15.1322H78.9734C78.2306 15.0478 77.8633 14.8791 77.8633 14.6776Z" fill="#D0B9BA"/>
<path d="M69.6465 14.6776C69.6465 14.4855 70.0138 14.3121 70.7567 14.2324H72.6443C73.3864 14.3121 73.7537 14.4855 73.7537 14.6823C73.7537 14.8791 73.3864 15.0478 72.6443 15.1322H70.7567C70.0138 15.0478 69.6465 14.8791 69.6465 14.6776Z" fill="#D0B9BA"/>
<path d="M61.4297 14.6776C61.4297 14.4855 61.797 14.3121 62.5399 14.2324H64.4275C65.1696 14.3121 65.5369 14.4855 65.5369 14.6823C65.5369 14.8791 65.1696 15.0478 64.4275 15.1322H62.5399C61.797 15.0478 61.4297 14.8791 61.4297 14.6776Z" fill="#D0B9BA"/>
<path d="M53.2158 14.6776C53.2158 14.4855 53.5832 14.3121 54.326 14.2324H56.2137C56.9557 14.3121 57.3231 14.4855 57.3231 14.6823C57.3231 14.8791 56.9557 15.0478 56.2137 15.1322H54.326C53.5832 15.0478 53.2158 14.8791 53.2158 14.6776Z" fill="#D0B9BA"/>
<path d="M47.1006 14.6786C47.1006 14.4865 47.2801 14.3131 47.643 14.2334H48.5652C48.9277 14.3131 49.1072 14.4865 49.1072 14.6833C49.1072 14.8801 48.9277 15.0488 48.5652 15.1332H47.643C47.2801 15.0488 47.1006 14.8801 47.1006 14.6786Z" fill="#D0B9BA"/>
<path d="M28.0071 139.201L31.6942 141.73L33.8379 140.787C33.8379 140.787 33.8915 139.018 33.9344 136.392C33.9558 134.409 33.988 132.641 33.988 132.534C33.988 132.266 28.4787 132.587 28.2215 132.673C28.1144 132.705 28.0607 133.916 28.0394 135.374C27.9858 137.539 28.0071 139.008 28.0071 139.201Z" fill="#FEC9AC"/>
<g opacity="0.5">
<path d="M28.0371 135.375C29.6877 136.157 31.5206 136.532 33.3427 136.447C33.5356 136.436 33.7393 136.425 33.9322 136.393C33.9536 134.41 33.9858 132.642 33.9858 132.534C33.9858 132.266 28.4765 132.588 28.2193 132.674C28.1122 132.706 28.0585 133.917 28.0371 135.375Z" fill="#FFAB90"/>
</g>
<path d="M26.1627 143.311C26.2123 143.644 26.5027 143.877 26.8427 143.877H43.4465C43.737 143.877 43.992 143.7 44.0982 143.431C44.3462 142.758 44.6791 141.511 43.907 140.98C42.8303 140.243 40.5494 140.924 38.9768 139.811C37.4114 138.706 35.5342 134.945 33.2817 137.502C33.2817 137.502 31.4683 140.279 30.2357 139.691C29.0032 139.103 28.0823 136.064 26.6019 137.226C25.8581 137.814 25.9218 141.88 26.1627 143.311Z" fill="#3A4146"/>
<path d="M11.1204 139.201L14.8075 141.73L16.9512 140.787C16.9512 140.787 17.0048 139.018 17.0477 136.392C17.069 134.409 17.1013 132.641 17.1013 132.534C17.1013 132.266 11.592 132.587 11.3348 132.673C11.2276 132.705 11.174 133.916 11.1526 135.374C11.099 137.539 11.1204 139.008 11.1204 139.201Z" fill="#FEC9AC"/>
<g opacity="0.5">
<path d="M11.1504 135.374C12.801 136.157 14.6339 136.532 16.456 136.446C16.6489 136.435 16.8526 136.425 17.0455 136.392C17.0669 134.409 17.0991 132.641 17.0991 132.534C17.0991 132.266 11.5899 132.587 11.3326 132.673C11.2254 132.705 11.1718 133.916 11.1504 135.374Z" fill="#FFAB90"/>
</g>
<path d="M9.27789 143.311C9.32746 143.644 9.61792 143.878 9.95791 143.878H26.5618C26.8522 143.878 27.1072 143.701 27.2134 143.431C27.4614 142.759 27.7943 141.512 27.0222 140.981C25.9455 140.244 23.6646 140.924 22.092 139.812C20.5266 138.707 18.6494 134.945 16.3969 137.503C16.3969 137.503 14.5835 140.279 13.3509 139.691C12.1184 139.104 11.1975 136.065 9.71711 137.226C8.97334 137.814 9.03709 141.88 9.27789 143.311Z" fill="#3A4146"/>
<path d="M37.719 74.319L37.5563 81.3L36.3539 134.035C36.3539 134.035 31.8131 135.415 28.7647 135.153C27.2582 135.026 26.0558 134.785 25.8224 134.361C25.101 133.088 24.2239 94.0029 24.2239 94.0029C24.2239 94.0029 19.2729 134.757 18.792 134.842C18.6292 134.87 17.6603 134.806 16.4225 134.651C13.9682 134.34 10.4601 133.668 9.99331 132.614C9.45576 131.383 11.0684 96.3793 11.8393 80.4301C12.0586 75.6911 12.2142 72.6357 12.2142 72.6357L37.719 74.319Z" fill="#003567"/>
<path d="M37.7166 74.3185L37.5539 81.2996C27.178 83.8176 16.5828 81.6884 11.8369 80.4296C12.0562 75.6906 12.2118 72.6353 12.2118 72.6353L37.7166 74.3185Z" fill="#022E4F"/>
<path d="M28.7661 134.819C27.2619 134.687 26.06 134.447 25.8197 134.028C25.0985 132.749 24.2224 93.6642 24.2224 93.6642C24.2224 93.6642 19.2753 134.424 18.7946 134.509C18.6317 134.532 17.6625 134.47 16.4219 134.315L24.5784 87.3369L28.7661 134.819Z" fill="#022E4F"/>
<path d="M58.3278 64.4993C58.4698 64.4318 61.1537 62.5862 61.9244 63.5259C62.6815 64.4723 61.3295 65.2295 61.3295 65.2295C61.3295 65.2295 67.3617 65.5101 65.7575 68.0553C63.255 72.0256 57.4287 68.0553 57.4287 68.0553C57.3003 68.1702 48.4915 68.4879 42.9615 66.4057C40.8455 65.608 39.2162 64.4655 38.7295 62.8227C38.7295 62.8227 42.9412 61.9168 47.0448 58.2324L47.5248 60.078C47.5248 60.078 47.6802 60.1456 47.9641 60.2606" fill="#FEC9AC"/>
<g opacity="0.5">
<path d="M47.5228 60.078C47.5228 60.078 47.6783 60.1456 47.9622 60.2606C46.9143 60.5107 45.9476 61.2611 45.2851 62.1467C44.3386 63.4041 43.8181 64.9252 43.0271 66.2908C43.0069 66.3314 42.9798 66.3652 42.9596 66.4057C40.8435 65.608 39.2143 64.4655 38.7275 62.8227C38.7275 62.8227 42.9392 61.9168 47.0428 58.2324L47.5228 60.078Z" fill="#FFAB90"/>
</g>
<path d="M48.9504 56.2994C48.327 57.0182 47.6889 57.6636 47.0436 58.2356C42.9365 61.9174 38.7267 62.8194 38.7267 62.8194L39.9295 77.675C25.7013 81.4961 10.7324 76.2743 10.7324 76.2743L11.1358 67.1318C16.0056 67.4253 20.9782 66.1198 25.0046 63.3695C28.987 60.6486 32.0086 56.6368 33.7982 52.1557C35.1623 48.7307 35.8224 45.049 35.8664 41.3525C43.3765 46.765 48.9504 56.2994 48.9504 56.2994Z" fill="#BA6161"/>
<path d="M35.8687 41.3518C35.8214 45.0498 35.1656 48.7274 33.8 52.1549C32.0153 56.637 28.9934 60.646 25.0115 63.3704C20.9756 66.1218 16.0067 67.4198 11.1392 67.1359L11.5313 61.491C7.87396 58.7395 6.37319 55.3796 5.75796 53.1487C5.39292 51.8236 5.3388 50.8907 5.33203 50.7217C5.33203 50.7014 5.33203 50.6946 5.33203 50.6946C5.33203 50.6946 10.2265 43.1974 18.2917 39.5805C19.2111 39.1614 20.1779 38.7964 21.1852 38.4989C22.5034 38.1135 23.9029 37.8364 25.3496 37.7214C26.749 37.6133 28.1416 37.7755 29.5072 38.1473C30.4064 38.384 31.2853 38.722 32.1505 39.1344C33.4282 39.7225 34.6721 40.4865 35.8687 41.3518Z" fill="#C67172"/>
<path d="M15.0941 56.3594L11.5313 61.4905C7.87397 58.739 6.37319 55.3791 5.75796 53.1482C5.39292 51.8231 5.3388 50.8902 5.33203 50.7212C8.95069 54.5449 14.993 56.6829 15.0941 56.3594Z" fill="#BA6161"/>
<path d="M11.53 61.4917L11.1853 61.8162L9.30591 63.5807L1.82892 65.068C0.111795 62.6478 1.01091 59.7476 2.36973 57.4152C3.80969 54.9747 5.7567 53.1494 5.7567 53.1494C6.37189 55.3803 7.87267 58.7402 11.53 61.4917Z" fill="#FEC9AC"/>
<path d="M20.4067 68.5526L18.875 68.2332C18.875 68.2332 19.805 66.4367 20.8732 66.4772C21.9074 66.5177 20.5892 68.4039 20.4067 68.5526Z" fill="#FEC9AC"/>
<path d="M39.9886 62.6L37.4876 73.5571C37.4363 73.7845 37.2309 73.9531 36.9889 73.9531H19.7684C19.4457 73.9531 19.1964 73.6451 19.2697 73.3224L21.7706 62.3725C21.822 62.1379 22.0347 61.9766 22.2694 61.9766H39.4899C39.8199 61.9766 40.0619 62.2846 39.9886 62.6Z" fill="#2E363A"/>
<path d="M26.8618 43.194C22.6747 43.6041 21.1895 38.5026 21.1895 38.5026C21.7907 37.7953 21.9958 36.4655 22.0524 35.3269C22.116 34.2376 22.0312 33.3252 22.0312 33.3252L28.3685 35.4754C28.3685 35.6593 28.3756 35.829 28.3967 35.9846C28.5594 37.6326 29.5072 38.1419 29.5072 38.1419C29.5072 38.1419 31.049 42.7837 26.8618 43.194Z" fill="#FEC9AC"/>
<g opacity="0.5">
<path d="M28.3948 35.9846C27.8997 36.402 27.2986 36.6919 26.5701 36.7981C24.4553 37.1164 22.9983 36.2958 22.0505 35.3269C22.1142 34.2376 22.0293 33.3252 22.0293 33.3252L28.3666 35.4754C28.3666 35.6593 28.3737 35.8291 28.3948 35.9846Z" fill="#FFAB90"/>
</g>
<path d="M32.1473 39.1304C32.1473 41.5141 31.3631 43.1539 29.7821 45.9926L26.8594 43.1935C28.5124 41.6128 29.7423 40.2788 29.507 38.1475C30.4018 38.3823 31.2819 38.7196 32.1473 39.1304Z" fill="#E5E5E5"/>
<path d="M26.8587 43.1933L24.729 46.1757C23.8195 46.2637 18.6372 41.6017 18.2852 39.5775C19.2092 39.1595 20.1774 38.8002 21.1821 38.4995C21.1821 38.4995 22.9423 42.1957 26.8587 43.1933Z" fill="#E5E5E5"/>
<path d="M39.9035 59.7516C39.9259 59.7026 40.0981 59.7584 40.4351 59.7553C40.7695 59.7534 41.284 59.6559 41.9368 59.4024C43.0534 59.0012 44.0312 58.2621 44.8728 57.4032C45.8868 56.4017 46.3679 55.8579 46.4535 55.9291C46.5196 55.9823 46.1805 56.6259 45.1933 57.719C44.3224 58.607 43.2926 59.3929 42.0887 59.8259C41.3759 60.0579 40.7922 60.1025 40.4092 60.022C40.0258 59.9405 39.8818 59.789 39.9035 59.7516Z" fill="white"/>
<path d="M7.096 52.2371C7.1944 52.1971 7.45037 52.7004 8.02925 53.6586C8.49579 54.4841 9.05042 55.2601 9.68274 55.9665C10.0467 56.3947 10.3121 56.7175 10.5089 56.8831C10.7056 57.0549 10.8336 57.114 10.822 57.1663C10.8159 57.2097 10.6476 57.2417 10.364 57.1085C10.0762 56.9745 9.75039 56.676 9.34764 56.2667C8.69346 55.5358 8.11988 54.7335 7.63733 53.8797C7.11054 52.8451 7.01166 52.2689 7.096 52.2371Z" fill="white"/>
<path d="M24.7816 69.9314C24.2408 74.0215 19.0285 71.6621 19.0285 71.6621C19.0285 71.6621 5.33875 70.0261 1.83008 65.0707L9.30707 63.5835L18.876 68.2328L20.4076 68.5523C20.6308 68.4847 25.1129 67.4031 24.7816 69.9314Z" fill="#FEC9AC"/>
<path d="M25.2704 26.159C25.1281 26.1748 21.8916 30.6815 21.802 30.6815L19.5249 29.933C19.5249 29.933 17.3246 27.6738 18.4105 25.1384C19.491 22.603 22.7403 21.1304 22.7403 21.1304L25.3284 23.2652C25.3284 23.2652 25.4075 26.1379 25.2704 26.159Z" fill="#CE704C"/>
<path d="M21.0701 32.3959C21.0701 32.3959 18.5276 31.2765 19.7322 29.5596C20.3987 28.6095 21.2153 29.2507 21.6396 29.7124C21.7586 29.8419 21.9731 29.7802 22.0049 29.6071C22.2703 28.162 23.2291 23.7751 25.1909 23.0841C27.5456 22.2546 30.1636 22.6586 31.0033 23.9685C32.6829 26.5887 32.0945 35.4196 27.5724 36.1956C23.0502 36.9716 21.0701 32.3959 21.0701 32.3959Z" fill="#FEC9AC"/>
<path d="M32.5396 23.5143V23.8891C31.6573 24.1429 30.7346 24.3678 29.7831 24.5465L29.6505 23.9584C29.0854 20.2389 27.1939 17.2171 25.4062 17.1768C29.3506 17.2114 32.5396 20.0313 32.5396 23.5143Z" fill="#BA6161"/>
<path d="M29.7869 24.5465C27.7859 24.9329 25.6465 25.152 23.4032 25.2558C22.9131 25.2789 22.4229 25.302 21.927 25.3077C20.9121 25.3308 19.874 25.3366 18.8245 25.3193C18.5535 25.3135 18.3171 25.1232 18.2709 24.858C18.1902 24.4081 18.1152 23.8545 18.1152 23.5143C18.1152 20.037 21.2927 17.2229 25.2371 17.1825C25.2832 17.1768 25.3236 17.1768 25.3697 17.1768H25.41C27.1977 17.2171 29.0892 20.2388 29.6543 23.9584L29.7869 24.5465Z" fill="#BA6161"/>
<path d="M29.7844 24.546C27.7834 24.9324 25.644 25.1515 23.4008 25.2554C23.2969 24.8113 23.1874 24.2865 23.1413 23.9579C22.5877 20.3076 23.5276 17.332 25.2346 17.182C25.2807 17.1763 25.3211 17.1763 25.3672 17.1763H25.4076C27.1952 17.2166 29.0867 20.2383 29.6518 23.9579L29.7844 24.546Z" fill="#BA6161"/>
<path d="M36.2021 25.8634C36.4341 26.654 32.544 25.2941 29.5395 27.2813C27.1043 28.889 22.5448 25.6789 21.9229 25.3099C25.8076 25.215 29.4078 24.8092 32.5441 23.8867C32.5441 23.8867 35.9439 24.9937 36.2021 25.8634Z" fill="#2E363A"/>
<path d="M25.7564 17.2593C25.79 17.7478 23.676 17.8932 23.6424 17.4047C23.6088 16.9162 24.0552 16.4919 24.6388 16.4518C25.2225 16.4117 25.7228 16.7708 25.7564 17.2593Z" fill="#2E363A"/>
<path d="M28.7116 34.3993C28.7226 34.4355 28.4536 34.5675 27.8934 34.4904C27.4266 34.403 26.9902 34.188 26.6227 33.8972C26.2036 33.531 26.0913 33.2707 26.1246 33.2464C26.1678 33.2102 26.3462 33.411 26.7617 33.7203C27.1055 33.9924 27.5077 34.1893 27.9353 34.2695C28.4371 34.3795 28.7039 34.34 28.7116 34.3993Z" fill="#4F2D2B"/>
<path d="M27.8914 32.8202C27.901 32.7962 27.9852 32.8122 28.1466 32.8353C28.3051 32.8543 28.5556 32.8926 28.845 32.7979C28.9646 32.7617 29.0913 32.6964 29.1392 32.6195C29.1886 32.5494 29.1692 32.4318 29.124 32.3012C29.0304 32.029 28.9522 31.7447 28.8961 31.4596C28.788 30.7783 28.8505 30.4356 28.8927 30.436C28.9485 30.4339 28.9729 30.7685 29.1167 31.416C29.1714 31.6925 29.245 31.9614 29.3375 32.2307C29.3806 32.3626 29.4418 32.5589 29.3288 32.7407C29.2134 32.9045 29.0591 32.9624 28.9112 33.0129C28.5443 33.1065 28.2734 33.0224 28.1126 32.965C27.9493 32.901 27.8825 32.8416 27.8914 32.8202Z" fill="#4F2D2B"/>
<path d="M27.0396 28.3188C27.0229 28.369 26.8867 28.35 26.6313 28.3571C26.4153 28.3477 26.1964 28.3876 25.9996 28.4755C25.7486 28.5563 25.6886 28.6325 25.6381 28.6213C25.5775 28.6147 25.6352 28.3969 25.9085 28.2697C26.1383 28.1675 26.3908 28.1218 26.6409 28.1324C26.9377 28.1699 27.056 28.2773 27.0396 28.3188Z" fill="#4F2D2B"/>
<path d="M30.3688 30.4352C30.578 30.4352 30.7475 30.1499 30.7475 29.7979C30.7475 29.446 30.578 29.1606 30.3688 29.1606C30.1597 29.1606 29.9902 29.446 29.9902 29.7979C29.9902 30.1499 30.1597 30.4352 30.3688 30.4352Z" fill="#4F2D2B"/>
<path d="M26.6608 30.4899C26.8699 30.4899 27.0395 30.2046 27.0395 29.8526C27.0395 29.5007 26.8699 29.2153 26.6608 29.2153C26.4517 29.2153 26.2822 29.5007 26.2822 29.8526C26.2822 30.2046 26.4517 30.4899 26.6608 30.4899Z" fill="#4F2D2B"/>
<path d="M20.92 31.3644C20.8827 31.4304 20.6108 31.4664 20.2255 31.0732C19.9243 30.6881 19.9603 30.089 20.3088 29.7374C20.5148 29.5294 20.8458 29.5132 20.9721 29.6285C21.1098 29.7346 21.0875 29.8432 21.0463 29.8586C20.9506 29.8996 20.8161 29.8003 20.6313 30.0511C20.4428 30.2451 20.4098 30.5872 20.5886 30.8075C20.7802 31.1096 20.9824 31.2723 20.92 31.3644Z" fill="#FFAB90"/>
<path d="M31.0071 27.9063C30.9939 27.9573 30.8383 27.9434 30.5434 27.9599C30.2934 27.9605 30.043 28.0135 29.8149 28.115C29.5089 28.2249 29.4731 28.2707 29.4363 28.3014C29.4161 28.3143 29.3636 28.2501 29.4196 28.151C29.4761 28.058 29.5791 27.9901 29.7234 27.9094C29.981 27.795 30.2617 27.7357 30.5431 27.7349C30.8776 27.7608 31.0204 27.8634 31.0071 27.9063Z" fill="#4F2D2B"/>
<g opacity="0.5">
<path d="M11.5304 61.4908L11.1857 61.8153C10.9288 61.6057 10.7327 61.2677 10.5164 61.0311C10.2257 60.7066 9.90795 60.4023 9.58349 60.1184C8.25168 58.9759 6.65625 58.1512 4.95259 57.732C4.10755 57.5225 3.24224 57.4143 2.37012 57.4143C3.81008 54.9737 5.75709 53.1484 5.75709 53.1484C6.37229 55.3794 7.87306 58.7393 11.5304 61.4908Z" fill="#FFAB90"/>
</g>
<path d="M154.776 140.158H55.1865V144H154.776V140.158Z" fill="#D38060"/>
<path d="M154.776 130.382H55.1865V134.224H154.776V130.382Z" fill="#D38060"/>
<path d="M147.721 134.233H141.591V140.167H147.721V134.233Z" fill="#C16244"/>
<path d="M127.885 134.228H121.755V140.162H127.885V134.228Z" fill="#C16244"/>
<path d="M108.045 134.223H101.915V140.157H108.045V134.223Z" fill="#C16244"/>
<path d="M88.2072 134.219H82.0771V140.153H88.2072V134.219Z" fill="#C16244"/>
<path d="M68.3722 134.212H62.2422V140.146H68.3722V134.212Z" fill="#C16244"/>
<path d="M154.907 76.4422V83.456C154.907 84.3612 154.158 85.1101 153.253 85.1101H90.7342C89.8225 85.1101 89.0801 84.3612 89.0801 83.456V76.4422C89.0801 75.524 89.8225 74.7881 90.7342 74.7881H153.253C154.158 74.7881 154.907 75.524 154.907 76.4422Z" fill="#FEC9AC"/>
<path d="M150.875 85.1094V127.422C150.875 129.128 149.481 130.522 147.775 130.522H96.2102C94.4975 130.522 93.1104 129.128 93.1104 127.422V85.1094H150.875Z" fill="#FEC9AC"/>
<path d="M150.875 85.1094H93.1104V87.9423H150.875V85.1094Z" fill="#FFAB90"/>
<path d="M129.926 92.6942V94.2277C129.926 94.7342 129.515 95.145 129.008 95.145H114.975C114.468 95.145 114.058 94.7342 114.058 94.2277V92.6942C114.058 92.1877 114.468 91.7769 114.975 91.7769H129.008C129.515 91.7769 129.926 92.1877 129.926 92.6942Z" fill="#FFAB90"/>
<path d="M110.314 118.069V124.237C110.314 124.723 109.917 125.12 109.431 125.12H97.7786C97.2926 125.12 96.9023 124.723 96.9023 124.237V118.069C96.9023 117.583 97.2926 117.186 97.7786 117.186H109.431C109.917 117.186 110.314 117.583 110.314 118.069Z" fill="white"/>
<path d="M108.76 118.71H108.281V123.596H108.76V118.71Z" fill="#C67172"/>
<path d="M105.398 118.709H104.919V123.595H105.398V118.709Z" fill="#C67172"/>
<path d="M100.401 118.71H99.9219V123.596H100.401V118.71Z" fill="#C67172"/>
<path d="M107.684 118.71H106.299V123.596H107.684V118.71Z" fill="#C67172"/>
<path d="M102.734 118.709H101.349V123.595H102.734V118.709Z" fill="#C67172"/>
<path d="M104.369 118.71H103.611V123.596H104.369V118.71Z" fill="#C67172"/>
<path d="M99.4867 118.71H98.4531V123.596H99.4867V118.71Z" fill="#C67172"/>
<path d="M145.136 120.598H143.131V124.422C143.131 124.594 142.992 124.733 142.82 124.733H141.524C141.353 124.733 141.214 124.594 141.214 124.422V120.598H139.209C139.009 120.598 138.909 120.356 139.051 120.214L142.015 117.25C142.102 117.163 142.243 117.163 142.33 117.25L145.295 120.215C145.436 120.356 145.336 120.598 145.136 120.598Z" fill="#4A5258"/>
<path d="M138.103 120.597H136.097V124.422C136.097 124.593 135.958 124.732 135.787 124.732H134.491C134.32 124.732 134.181 124.593 134.181 124.422V120.597H132.176C131.976 120.597 131.876 120.355 132.017 120.214L134.982 117.25C135.069 117.163 135.21 117.163 135.297 117.25L138.262 120.215C138.403 120.356 138.303 120.597 138.103 120.597Z" fill="#4A5258"/>
<g opacity="0.1">
<path d="M90.7342 74.7881C89.8225 74.7881 89.0801 75.524 89.0801 76.4422V83.456C89.0801 84.3612 89.8225 85.1101 90.7342 85.1101H93.1112V127.423C93.1112 129.129 94.4983 130.523 96.2111 130.523H123.244C125.1 130.523 126.604 129.012 126.604 127.156V81.8409H129.183C130.166 81.8409 130.98 81.0334 130.98 80.0435V74.7881H90.7342Z" fill="black"/>
</g>
<path d="M127.042 72.4462V80.0469C127.042 81.0341 126.233 81.8431 125.246 81.8431H57.4632C56.476 81.8431 55.667 81.0341 55.667 80.0469V72.4462C55.667 71.4515 56.476 70.6499 57.4632 70.6499H125.246C126.233 70.6499 127.042 71.4515 127.042 72.4462Z" fill="#FEC9AC"/>
<path d="M122.668 81.8433V127.159C122.668 129.014 121.161 130.521 119.305 130.521H63.3986C61.5429 130.521 60.0361 129.014 60.0361 127.159V81.8433H122.668Z" fill="#FEC9AC"/>
<path d="M122.668 81.8433H60.0361V84.9162H122.668V81.8433Z" fill="#FFAB90"/>
<path d="M99.9575 75.4146V77.0773C99.9575 77.6265 99.5122 78.0719 98.9629 78.0719H83.7466C83.1973 78.0719 82.752 77.6265 82.752 77.0773V75.4146C82.752 74.8654 83.1973 74.4199 83.7466 74.4199H98.9629C99.5122 74.4199 99.9575 74.8654 99.9575 75.4146Z" fill="#FFAB90"/>
<path d="M78.6909 117.019V123.707C78.6909 124.234 78.2603 124.664 77.7334 124.664H65.0995C64.5725 124.664 64.1494 124.234 64.1494 123.707V117.019C64.1494 116.492 64.5726 116.062 65.0995 116.062H77.7334C78.2603 116.062 78.6909 116.492 78.6909 117.019Z" fill="white"/>
<path d="M116.446 119.762H114.271V123.909C114.271 124.094 114.12 124.245 113.934 124.245H112.529C112.343 124.245 112.193 124.094 112.193 123.909V119.762H110.019C109.802 119.762 109.694 119.5 109.847 119.346L113.061 116.132C113.156 116.038 113.308 116.038 113.403 116.132L116.618 119.347C116.771 119.5 116.662 119.762 116.446 119.762Z" fill="#4A5258"/>
<path d="M108.821 119.761H106.646V123.908C106.646 124.094 106.495 124.245 106.309 124.245H104.904C104.718 124.245 104.568 124.094 104.568 123.908V119.761H102.394C102.177 119.761 102.069 119.499 102.222 119.346L105.436 116.132C105.53 116.037 105.683 116.037 105.778 116.132L108.993 119.347C109.146 119.5 109.037 119.761 108.821 119.761Z" fill="#4A5258"/>
<path d="M99.7907 81.7837V107.102L92.398 101.769L85.0137 107.102V81.7837H99.7907Z" fill="#FE4C40"/>
<path d="M99.7907 81.7837V94.9909C99.583 95.1155 99.3671 95.2152 99.1345 95.2899C97.1077 95.9462 94.6407 94.3513 92.398 94.3513C90.1553 94.3513 87.6883 95.9462 85.6698 95.2899C85.4372 95.2152 85.2213 95.1155 85.0137 94.9909V81.7837H99.7907Z" fill="#EA241F"/>
<path d="M114.178 71.9234C114.178 74.1656 111.873 76.016 111.216 78.0383C110.535 80.1366 111.288 82.9821 110.019 84.7287C108.736 86.4912 105.787 86.6471 104.024 87.93C102.28 89.2009 101.225 91.9646 99.1282 92.644C97.1059 93.3015 94.638 91.7068 92.3959 91.7068C90.1539 91.7068 87.6859 93.3015 85.6636 92.644C83.5673 91.9646 82.5123 89.2009 80.7677 87.93C79.0053 86.6471 76.0557 86.4893 74.7728 84.7267C73.5039 82.9821 74.2572 80.1345 73.5758 78.0384C72.9184 76.016 70.6143 74.1656 70.6143 71.9235C70.6143 69.6814 72.9184 67.8309 73.5758 65.8086C74.2572 63.7104 73.5038 60.8648 74.7728 59.1182C76.0557 57.3558 79.0053 57.1999 80.7677 55.9169C82.5123 54.646 83.5673 51.8823 85.6636 51.2029C87.6859 50.5455 90.1539 52.1401 92.3959 52.1401C94.638 52.1401 97.1059 50.5454 99.1282 51.2029C101.225 51.8823 102.28 54.646 104.024 55.9169C105.787 57.1999 108.736 57.3577 110.019 59.1202C111.288 60.8648 110.535 63.7124 111.216 65.8086C111.873 67.8309 114.178 69.6813 114.178 71.9234Z" fill="#FE4C40"/>
<path d="M107.53 71.9226C107.53 80.2781 100.757 87.0595 92.3931 87.0595C84.0375 87.0595 77.2646 80.2781 77.2646 71.9226C77.2646 63.567 84.0375 56.7856 92.3931 56.7856C100.757 56.7856 107.53 63.567 107.53 71.9226Z" fill="#EA241F"/>
<path d="M106.085 71.9223C106.085 79.4799 99.9589 85.6137 92.3937 85.6137C84.8361 85.6137 78.71 79.4799 78.71 71.9223C78.71 64.3647 84.836 58.231 92.3937 58.231C99.959 58.231 106.085 64.3647 106.085 71.9223Z" fill="white"/>
<path d="M89.7959 77.5495C89.5205 77.5495 89.2461 77.4422 89.0392 77.2302L86.5906 74.7161C86.1836 74.2983 86.1924 73.6293 86.6102 73.2223C87.028 72.8148 87.697 72.8241 88.104 73.2419L89.8408 75.0251L98.1816 67.4487C98.6139 67.0572 99.2824 67.0892 99.6739 67.5204C100.066 67.9521 100.034 68.6201 99.6021 69.0127L90.5062 77.2751C90.304 77.4587 90.0497 77.5495 89.7959 77.5495Z" fill="#C67171"/>
<path d="M143.958 54.0237C149.358 54.0237 153.735 49.6463 153.735 44.2465C153.735 38.8467 149.358 34.4692 143.958 34.4692C138.558 34.4692 134.181 38.8467 134.181 44.2465C134.181 49.6463 138.558 54.0237 143.958 54.0237Z" fill="#BA6161"/>
<path d="M145.877 42.3426L146.481 42.2671V48.6555H144.862C144.83 48.6555 142.629 49.1086 140.837 49.4756C139.683 49.7238 138.604 48.8388 138.604 47.6519V42.9901C138.604 42.5799 138.927 42.2347 139.348 42.2132L142.391 42.0512C142.391 42.0512 142.305 41.8462 142.003 41.1555C141.452 39.8821 141.906 38.3391 143.082 37.7347C144.258 37.1304 143.406 39.0728 143.837 39.9145C144.118 40.4865 145.046 41.6736 145.434 42.1592C145.542 42.2994 145.704 42.3642 145.877 42.3426Z" fill="white"/>
<path d="M149.313 42.256L148.859 48.3639C148.849 48.5256 148.708 48.6552 148.546 48.6552H146.917V42.2022L148.967 41.9324C149.151 41.9 149.323 42.0617 149.313 42.256Z" fill="white"/>
<path d="M166.574 45.5085C167.513 44.5694 167.513 43.0468 166.574 42.1077C165.635 41.1686 164.112 41.1686 163.173 42.1077C162.234 43.0468 162.234 44.5694 163.173 45.5085C164.112 46.4477 165.635 46.4476 166.574 45.5085Z" fill="#D0B9BA"/>
<path d="M72.3864 2.12023V7.06003C72.3864 7.33535 72.1652 7.55672 71.8952 7.55672H50.0088V0.00390625H70.2702C71.4417 0.00390625 72.3864 0.948699 72.3864 2.12023Z" fill="#D0B9BA"/>
<path d="M45.6973 2.48622L45.7019 28.0731H65.7901C67.0518 28.0731 68.0808 27.0488 68.0808 25.7823L68.0761 2.07189C68.0761 1.05223 68.8024 0.20026 69.7709 0H48.1835C46.81 3.9821e-05 45.6973 1.1128 45.6973 2.48622Z" fill="#F3F6FD"/>
<path d="M65.2414 27.6716C65.3656 27.839 65.2306 28.0711 65.0255 28.0711H42.081C42.0161 28.0711 41.9568 28.0495 41.9082 28.0117C40.9095 27.1911 40.9095 25.6579 41.9082 24.8318C41.9568 24.7941 42.0161 24.7725 42.081 24.7725H65.0255C65.2306 24.7725 65.3656 25.01 65.2414 25.1719C64.6799 25.9062 64.6799 26.9428 65.2414 27.6716Z" fill="#D0B9BA"/>
<path d="M64.2327 15.8565H49.1753C49.0449 15.8565 48.9385 15.7501 48.9385 15.6197C48.9385 15.4892 49.0449 15.3828 49.1753 15.3828H64.2327C64.3632 15.3828 64.4696 15.4892 64.4696 15.6197C64.4696 15.7502 64.3632 15.8565 64.2327 15.8565Z" fill="#A6A6A6"/>
<path d="M64.2327 18.7476H49.1753C49.0449 18.7476 48.9385 18.6412 48.9385 18.5108C48.9385 18.3803 49.0449 18.2739 49.1753 18.2739H64.2327C64.3632 18.2739 64.4696 18.3803 64.4696 18.5108C64.4696 18.6412 64.3632 18.7476 64.2327 18.7476Z" fill="#A6A6A6"/>
<path d="M64.2327 21.6348H49.1753C49.0449 21.6348 48.9385 21.5284 48.9385 21.398C48.9385 21.2675 49.0449 21.1611 49.1753 21.1611H64.2327C64.3632 21.1611 64.4696 21.2675 64.4696 21.398C64.4696 21.5284 64.3632 21.6348 64.2327 21.6348Z" fill="#A6A6A6"/>
<path d="M56.8827 3.4069L58.0311 5.73376C58.085 5.84318 58.1895 5.91904 58.3102 5.9366L60.8781 6.30973C61.1822 6.35393 61.3037 6.72769 61.0836 6.9422L59.2255 8.75342C59.1381 8.8386 59.0982 8.96133 59.1188 9.08163L59.5575 11.6391C59.6094 11.942 59.2915 12.1731 59.0195 12.03L56.7227 10.8225C56.6147 10.7657 56.4856 10.7657 56.3776 10.8225L54.0808 12.03C53.8088 12.173 53.4909 11.942 53.5428 11.6391L53.9815 9.08163C54.0021 8.96133 53.9622 8.8386 53.8748 8.75342L52.0167 6.9422C51.7966 6.72769 51.918 6.35393 52.2222 6.30973L54.7901 5.9366C54.9108 5.91904 55.0153 5.84318 55.0692 5.73376L56.2176 3.4069C56.3536 3.1313 56.7466 3.1313 56.8827 3.4069Z" fill="#FFCF3D"/>
<path d="M172.115 63.3568V73.6506C172.115 74.1267 171.729 74.5084 171.257 74.5084H159.8C159.329 74.5084 158.942 74.1267 158.942 73.6506V63.3568C158.942 62.8852 159.329 62.499 159.8 62.499H171.257C171.729 62.499 172.115 62.8852 172.115 63.3568Z" fill="#E5E5E5"/>
<path d="M168.626 70.3487C169.989 68.9853 169.989 66.7668 168.626 65.4034C167.262 64.04 165.044 64.04 163.68 65.4034C162.502 66.5817 162.347 68.3966 163.206 69.7483L161.737 71.2164C161.44 71.5135 161.441 71.9947 161.737 72.2916C162.034 72.5884 162.515 72.5887 162.813 72.2916L164.281 70.8235C165.632 71.6819 167.447 71.527 168.626 70.3487ZM164.755 69.2735C163.985 68.5028 163.985 67.2492 164.755 66.4785C165.526 65.7079 166.78 65.7079 167.55 66.4785C168.321 67.2492 168.321 68.5028 167.55 69.2735C166.78 70.0442 165.526 70.0442 164.755 69.2735Z" fill="#231F20" fill-opacity="0.25"/>
<path d="M126.573 9.05694V21.7115C126.573 22.2968 126.098 22.766 125.518 22.766H111.433C110.854 22.766 110.379 22.2968 110.379 21.7115V9.05694C110.379 8.47719 110.854 8.00244 111.433 8.00244H125.518C126.098 8.00244 126.573 8.47719 126.573 9.05694Z" fill="#E5E5E5"/>
<path d="M123.763 16.0347L123.564 16.9622C123.532 17.1096 123.41 17.2205 123.26 17.2382L122.725 17.3013C122.607 17.3151 122.507 17.3886 122.452 17.4936C122.288 17.8081 122.087 18.0976 121.858 18.3583C121.78 18.4467 121.747 18.5656 121.776 18.6799L121.906 19.2021C121.942 19.3483 121.882 19.5015 121.755 19.5833L120.958 20.0983C120.832 20.1801 120.667 20.1725 120.549 20.0792L120.126 19.7457C120.033 19.6731 119.912 19.6537 119.8 19.688C119.468 19.7895 119.121 19.8547 118.766 19.8759C118.648 19.8829 118.54 19.944 118.479 20.0455L118.202 20.5077C118.124 20.637 117.973 20.7025 117.826 20.6709L116.9 20.4721C116.753 20.4405 116.642 20.319 116.624 20.1696L116.56 19.6324C116.545 19.5152 116.472 19.4155 116.368 19.3607C116.054 19.196 115.766 18.9945 115.506 18.7646C115.417 18.6864 115.297 18.6538 115.183 18.6826L114.661 18.8138C114.515 18.8507 114.361 18.7901 114.279 18.6634L113.764 17.8668C113.683 17.7404 113.69 17.576 113.783 17.4577L114.117 17.0326C114.19 16.9401 114.209 16.8182 114.175 16.7058C114.072 16.3733 114.006 16.0265 113.983 15.6728C113.976 15.5554 113.915 15.4483 113.814 15.3877L113.352 15.1103C113.223 15.0327 113.158 14.8816 113.19 14.7343L113.389 13.8065C113.42 13.6592 113.542 13.5482 113.692 13.5306L114.229 13.4673C114.345 13.4535 114.445 13.3808 114.5 13.2767C114.666 12.9636 114.867 12.6742 115.097 12.4134C115.174 12.325 115.207 12.206 115.179 12.0918L115.048 11.5696C115.012 11.4234 115.073 11.2702 115.199 11.1884L115.996 10.6733C116.122 10.5916 116.287 10.5993 116.405 10.6925L116.827 11.025C116.92 11.0982 117.043 11.1171 117.156 11.0818C117.488 10.9779 117.833 10.9133 118.188 10.8911C118.305 10.8838 118.412 10.8231 118.473 10.7226L118.752 10.2604C118.83 10.1318 118.981 10.0666 119.128 10.0982L120.054 10.2972C120.202 10.3288 120.312 10.4506 120.33 10.6002L120.394 11.1344C120.407 11.2514 120.48 11.3511 120.585 11.4061C120.899 11.5721 121.189 11.7731 121.45 12.0033C121.539 12.0809 121.657 12.1136 121.771 12.0854L122.294 11.9565C122.44 11.9205 122.593 11.9811 122.674 12.1074L123.189 12.9042C123.271 13.031 123.263 13.1958 123.17 13.3142L122.836 13.7355C122.763 13.8284 122.744 13.9512 122.779 14.0643C122.882 14.3962 122.946 14.7418 122.968 15.0943C122.975 15.2123 123.036 15.3203 123.137 15.3811L123.6 15.6586C123.729 15.7361 123.794 15.8873 123.763 16.0347Z" fill="white"/>
<path d="M123.681 16.0327L123.482 16.9602C123.45 17.1076 123.328 17.2186 123.178 17.2362L122.643 17.2993C122.525 17.3132 122.425 17.3867 122.37 17.4917C122.206 17.8062 122.005 18.0956 121.776 18.3564C121.698 18.4447 121.665 18.5637 121.694 18.678L121.824 19.2002C121.86 19.3464 121.8 19.4996 121.673 19.5813L120.876 20.0964C120.75 20.1782 120.585 20.1705 120.467 20.0772L120.044 19.7437C119.951 19.6711 119.83 19.6517 119.718 19.686C119.386 19.7876 119.039 19.8528 118.685 19.8739C118.566 19.881 118.458 19.942 118.397 20.0435L118.12 20.5058C118.042 20.635 117.891 20.7006 117.744 20.6689L116.818 20.4701C116.671 20.4385 116.56 20.317 116.542 20.1677L116.478 19.6304C116.463 19.5133 116.39 19.4136 116.286 19.3588C115.972 19.1941 115.684 18.9926 115.424 18.7627C115.335 18.6844 115.215 18.6518 115.101 18.6807L114.579 18.8119C114.433 18.8487 114.279 18.7882 114.197 18.6614L113.682 17.8649C113.601 17.7385 113.608 17.5741 113.701 17.4558L114.035 17.0307C114.108 16.9381 114.127 16.8163 114.092 16.7038C113.99 16.3713 113.924 16.0246 113.901 15.6708C113.894 15.5535 113.833 15.4463 113.732 15.3858L113.27 15.1083C113.141 15.0307 113.076 14.8796 113.107 14.7323L113.307 13.8046C113.338 13.6572 113.46 13.5463 113.61 13.5286L114.146 13.4654C114.263 13.4516 114.363 13.3788 114.418 13.2747C114.584 12.9617 114.785 12.6723 115.014 12.4114C115.092 12.3231 115.125 12.2041 115.096 12.0898L114.966 11.5676C114.93 11.4214 114.991 11.2682 115.117 11.1864L115.914 10.6714C116.04 10.5896 116.205 10.5973 116.323 10.6906L116.745 11.023C116.838 11.0962 116.961 11.1152 117.074 11.0798C117.406 10.9759 117.751 10.9113 118.106 10.8892C118.223 10.8819 118.33 10.8211 118.391 10.7206L118.67 10.2585C118.748 10.1298 118.899 10.0647 119.046 10.0963L119.972 10.2952C120.12 10.3269 120.23 10.4486 120.248 10.5982L120.312 11.1324C120.326 11.2494 120.398 11.3492 120.503 11.4041C120.817 11.5701 121.107 11.7711 121.369 12.0013C121.457 12.079 121.575 12.1116 121.689 12.0835L122.212 11.9546C122.358 11.9186 122.511 11.9792 122.592 12.1054L123.107 12.9022C123.189 13.029 123.181 13.1939 123.088 13.3123L122.754 13.7336C122.681 13.8265 122.662 13.9492 122.697 14.0624C122.8 14.3943 122.864 14.7399 122.886 15.0923C122.893 15.2104 122.954 15.3183 123.055 15.3792L123.518 15.6567C123.647 15.7342 123.712 15.8854 123.681 16.0327Z" fill="#231F20" fill-opacity="0.25"/>
<path d="M118.475 17.7945C119.806 17.7945 120.885 16.7155 120.885 15.3845C120.885 14.0536 119.806 12.9746 118.475 12.9746C117.144 12.9746 116.065 14.0536 116.065 15.3845C116.065 16.7155 117.144 17.7945 118.475 17.7945Z" fill="#E5E5E5"/>
</svg>
