<svg width="24" height="24" viewBox="0 0 24 24" fill="none" xmlns="http://www.w3.org/2000/svg">
<path d="M21.5 12.0002C21.5 13.8792 20.9428 15.7159 19.899 17.2782C18.8551 18.8404 17.3714 20.0581 15.6355 20.7771C13.8996 21.4961 11.9895 21.6843 10.1466 21.3177C8.30383 20.9511 6.61109 20.0464 5.28249 18.7178C3.95389 17.3892 3.0491 15.6964 2.68254 13.8536C2.31598 12.0108 2.50412 10.1007 3.22315 8.36475C3.94218 6.62885 5.15982 5.14516 6.72209 4.10128C8.28435 3.05741 10.1211 2.50024 12 2.50024C13.849 2.49964 15.658 3.03863 17.2052 4.05112C18.7523 5.06362 19.9704 6.5056 20.71 8.20024M21.5 5.50024L21.025 8.67524L18 8.00024" stroke="#231F20" stroke-opacity="0.75" stroke-width="1.5" stroke-linecap="round" stroke-linejoin="round"/>
<path d="M10 11.0002V9.50024C10 8.96981 10.2107 8.4611 10.5858 8.08603C10.9609 7.71096 11.4696 7.50024 12 7.50024C12.5304 7.50024 13.0391 7.71096 13.4142 8.08603C13.7893 8.4611 14 8.96981 14 9.50024V11.0002M11.25 16.5002H12.75C13.923 16.5002 14.51 16.5002 14.913 16.1902C15.017 16.1104 15.1102 16.0173 15.19 15.9132C15.5 15.5092 15.5 14.9232 15.5 13.7502C15.5 12.5772 15.5 11.9902 15.19 11.5872C15.1102 11.4832 15.017 11.3901 14.913 11.3102C14.509 11.0002 13.923 11.0002 12.75 11.0002H11.25C10.077 11.0002 9.49 11.0002 9.087 11.3102C8.98295 11.3901 8.88983 11.4832 8.81 11.5872C8.5 11.9912 8.5 12.5772 8.5 13.7502C8.5 14.9232 8.5 15.5102 8.81 15.9132C8.88983 16.0173 8.98295 16.1104 9.087 16.1902C9.491 16.5002 10.077 16.5002 11.25 16.5002Z" stroke="#231F20" stroke-opacity="0.75" stroke-width="1.5" stroke-linecap="round" stroke-linejoin="round"/>
</svg>
