<svg width="24" height="24" viewBox="0 0 24 24" fill="none" xmlns="http://www.w3.org/2000/svg">
<g clip-path="url(#clip0_413_1863)">
<path d="M13.2227 5.78125V5.78223C13.2991 5.7839 13.3743 5.8005 13.4434 5.83203L13.5098 5.86816C13.5743 5.90894 13.629 5.96289 13.6719 6.02539L13.7109 6.09082L14.5498 7.77637L14.7012 8.08105L15.04 8.05273L16.5205 7.92578L16.5215 7.92676C16.6218 7.91882 16.7222 7.93805 16.8125 7.98242C16.9018 8.02633 16.9784 8.0928 17.0332 8.17578V8.17676L18.0928 9.81934V9.82031C18.1524 9.91301 18.1834 10.0217 18.1807 10.1318C18.1786 10.2145 18.1574 10.2952 18.1201 10.3682L18.0771 10.4385V10.4395L17.2969 11.5312L17.083 11.8311L17.3047 12.124L18.1348 13.2197L18.1357 13.2207C18.2532 13.3758 18.2786 13.5808 18.2061 13.7588L18.1689 13.834H18.168L17.168 15.5098C17.1155 15.5954 17.0409 15.6659 16.9521 15.7129C16.8626 15.7602 16.7613 15.7818 16.6602 15.7764H16.6592L15.0947 15.6807L14.7607 15.6602L14.6143 15.9609L13.6484 17.9385C13.6022 18.03 13.5314 18.1069 13.4443 18.1611C13.3563 18.2159 13.255 18.2456 13.1514 18.2461H10.9932C10.8896 18.2454 10.7881 18.216 10.7002 18.1611C10.6134 18.1069 10.5432 18.0298 10.4971 17.9385L9.58887 16.0801L9.4375 15.7715L9.09473 15.8018L7.41504 15.9541C7.31368 15.9621 7.2121 15.9419 7.12109 15.8965C7.05229 15.8621 6.9915 15.8143 6.94238 15.7559L6.89746 15.6943L5.83691 13.9863C5.79262 13.915 5.76525 13.8348 5.75684 13.752L5.75488 13.6689C5.7591 13.5851 5.78207 13.5035 5.82227 13.4307L5.86816 13.3613V13.3604L6.82812 12.1104L7.05371 11.8164L6.83789 11.5146L6.06641 10.4365H6.06543C6.00185 10.3471 5.96654 10.2405 5.96387 10.1309C5.96191 10.0482 5.97903 9.96632 6.0127 9.8916L6.05176 9.81934L7.1123 8.1748L7.11133 8.17383C7.15227 8.11178 7.20628 8.05977 7.26758 8.01855L7.33203 7.98047C7.42219 7.93604 7.52283 7.91703 7.62305 7.9248V7.92383L9.21289 8.06055L9.54199 8.08789L9.69727 7.79688L10.6289 6.04297L10.6299 6.04395C10.6784 5.95421 10.75 5.87891 10.8379 5.82715C10.9254 5.77562 11.0254 5.74916 11.127 5.75L13.2227 5.78125ZM10.9443 6.51953L10 8.29492C9.94851 8.38947 9.87092 8.46699 9.77637 8.51855C9.68196 8.57002 9.57497 8.59377 9.46777 8.58594L7.84863 8.44824L7.54883 8.42188L7.38574 8.6748L6.6377 9.83496L6.45312 10.1211L6.65137 10.3975L7.43945 11.4971C7.50808 11.5929 7.54384 11.7083 7.54199 11.8262C7.54011 11.9437 7.50098 12.0579 7.42969 12.1514L6.45312 13.4189L6.24219 13.6934L6.4248 13.9873L7.17676 15.1992L7.33984 15.4619L7.64746 15.4336L9.35938 15.2783H9.36035C9.4712 15.2681 9.58258 15.2913 9.67969 15.3457C9.75254 15.3866 9.81504 15.4437 9.8623 15.5117L9.9043 15.584L10.8223 17.4648L10.959 17.7461H13.1836L13.3213 17.4658L14.2969 15.4717L14.2959 15.4707C14.3447 15.3745 14.4214 15.2946 14.5146 15.2402C14.6083 15.1857 14.716 15.1597 14.8242 15.165L16.4199 15.2607L16.7236 15.2793L16.8789 15.0186L17.583 13.8379L17.7559 13.5488L17.5527 13.2803L16.7041 12.1602C16.6337 12.0667 16.5953 11.9529 16.5938 11.8359C16.5923 11.719 16.6273 11.604 16.6953 11.5088L16.6963 11.5098L17.4941 10.3975L17.6924 10.1211L17.5078 9.83496L16.7598 8.6748L16.5967 8.42285L16.2979 8.44824L14.7773 8.57617C14.6673 8.58555 14.5572 8.561 14.4609 8.50684C14.3887 8.46613 14.3264 8.41023 14.2793 8.34277L14.2373 8.27246V8.27148L13.3838 6.55566L13.248 6.2832L12.9434 6.27832L11.3936 6.25391L11.0879 6.24902L10.9443 6.51953Z" fill="#231F20" stroke="#231F20"/>
<path d="M20.564 14.8001C19.9573 16.673 18.7533 18.2953 17.1363 19.4184C15.5194 20.5415 13.5788 21.1034 11.6119 21.0181C9.64509 20.9327 7.76046 20.2048 6.24688 18.9459C4.73329 17.687 3.67425 15.9665 3.23205 14.0481L4.93405 13.7121L1.69405 10.3601L-0.00195312 14.6941L1.79205 14.3421C2.29272 16.5941 3.52112 18.6185 5.28743 20.1025C7.05374 21.5865 9.25962 22.4475 11.5642 22.5524C13.8688 22.6574 16.1438 22.0004 18.0377 20.683C19.9315 19.3657 21.3388 17.4612 22.042 15.2641L20.564 14.8001ZM22.236 9.72006C21.7351 7.46816 20.5065 5.4439 18.7401 3.96009C16.9736 2.47629 14.7677 1.61553 12.4631 1.51082C10.1585 1.40612 7.88363 2.06331 5.98992 3.38083C4.09621 4.69835 2.6891 6.60286 1.98605 8.80006L3.41205 9.26406C4.01856 7.39114 5.22245 5.76874 6.83925 4.64548C8.45604 3.52223 10.3965 2.96009 12.3634 3.0452C14.3302 3.13031 16.2149 3.85798 17.7286 5.11669C19.2423 6.37541 20.3016 8.09574 20.744 10.0141L19.042 10.3521L22.282 13.6961L23.998 9.36806L22.236 9.72006Z" fill="#231F20"/>
<path fill-rule="evenodd" clip-rule="evenodd" d="M12 11.25C11.8011 11.25 11.6103 11.329 11.4697 11.4697C11.329 11.6103 11.25 11.8011 11.25 12C11.25 12.1989 11.329 12.3897 11.4697 12.5303C11.6103 12.671 11.8011 12.75 12 12.75C12.1989 12.75 12.3897 12.671 12.5303 12.5303C12.671 12.3897 12.75 12.1989 12.75 12C12.75 11.8011 12.671 11.6103 12.5303 11.4697C12.3897 11.329 12.1989 11.25 12 11.25ZM9.75 12C9.75 11.4033 9.98705 10.831 10.409 10.409C10.831 9.98705 11.4033 9.75 12 9.75C12.5967 9.75 13.169 9.98705 13.591 10.409C14.0129 10.831 14.25 11.4033 14.25 12C14.25 12.5967 14.0129 13.169 13.591 13.591C13.169 14.0129 12.5967 14.25 12 14.25C11.4033 14.25 10.831 14.0129 10.409 13.591C9.98705 13.169 9.75 12.5967 9.75 12Z" fill="#231F20"/>
</g>
<defs>
<clipPath id="clip0_413_1863">
<rect width="24" height="24" fill="white"/>
</clipPath>
</defs>
</svg>
