<svg width="32" height="32" viewBox="0 0 32 32" fill="none" xmlns="http://www.w3.org/2000/svg">
<path d="M24.3222 21.9062C24.3222 22.6383 24.0314 23.3404 23.5137 23.8581C22.996 24.3757 22.2939 24.6666 21.5618 24.6666C20.8297 24.6666 20.1276 24.3757 19.6099 23.8581C19.0922 23.3404 18.8014 22.6383 18.8014 21.9062C18.8014 21.1741 19.0922 20.4719 19.6099 19.9543C20.1276 19.4366 20.8297 19.1458 21.5618 19.1458C22.2939 19.1458 22.996 19.4366 23.5137 19.9543C24.0314 20.4719 24.3222 21.1741 24.3222 21.9062ZM13.2806 21.9062C13.2806 22.6383 12.9898 23.3404 12.4721 23.8581C11.9544 24.3757 11.2523 24.6666 10.5202 24.6666C9.78807 24.6666 9.08595 24.3757 8.56827 23.8581C8.05059 23.3404 7.75977 22.6383 7.75977 21.9062C7.75977 21.1741 8.05059 20.4719 8.56827 19.9543C9.08595 19.4366 9.78807 19.1458 10.5202 19.1458C11.2523 19.1458 11.9544 19.4366 12.4721 19.9543C12.9898 20.4719 13.2806 21.1741 13.2806 21.9062Z" stroke="white" stroke-width="1.5" stroke-linecap="round" stroke-linejoin="round"/>
<path d="M18.8021 21.9062H13.2812M19.3541 19.6979V10.3125C19.3541 8.7512 19.3541 7.97056 18.8683 7.48583C18.3847 7 17.604 7 16.0416 7H8.31249C6.7512 7 5.97056 7 5.48583 7.48583C5 7.96946 5 8.7501 5 10.3125V19.1458C5 20.1782 5 20.6938 5.22194 21.0781C5.3673 21.3299 5.57636 21.5389 5.82812 21.6843C6.21237 21.9062 6.72802 21.9062 7.76041 21.9062M19.9062 9.76041H21.8948C22.8113 9.76041 23.2695 9.76041 23.6493 9.97572C24.0292 10.1899 24.2644 10.583 24.7358 11.3692L26.6118 14.494C26.8459 14.8848 26.9629 15.0814 27.0237 15.2978C27.0833 15.5153 27.0833 15.7428 27.0833 16.1988V19.1458C27.0833 20.1782 27.0833 20.6938 26.8613 21.0781C26.716 21.3299 26.5069 21.5389 26.2552 21.6843C25.8709 21.9062 25.3553 21.9062 24.3229 21.9062" stroke="white" stroke-width="1.5" stroke-linecap="round" stroke-linejoin="round"/>
</svg>
