<svg width="22" height="21" viewBox="0 0 22 21" fill="none" xmlns="http://www.w3.org/2000/svg">
<path d="M4.08558 8.8818V16.4519C4.08558 17.7087 4.08558 18.3376 4.58446 18.8715C5.08224 19.4053 5.6789 19.4984 6.87112 19.6865C7.97334 19.8594 9.37001 20 11 20C12.63 20 14.0267 19.8594 15.1289 19.6865C16.3211 19.4984 16.9178 19.4053 17.4166 18.8715C17.9144 18.3376 17.9144 17.7087 17.9144 16.4519V8.88085C17.9144 8.23203 17.9144 7.90715 18.0611 7.62122C18.2066 7.33623 18.4811 7.12439 19.0289 6.70167L19.2355 6.54302C20.4089 5.63867 20.9955 5.18555 21 4.53103C21.0044 3.87557 20.4833 3.46519 19.4433 2.64253C19.2932 2.52336 19.1383 2.40867 18.9789 2.29865C18.4544 1.93957 17.7144 1.54629 17.1478 1.26321C16.8871 1.13387 16.5989 1.05006 16.3 1.01663C16.0012 0.983201 15.6975 1.00082 15.4067 1.06847L14.8622 1.19101C14.424 1.29051 14.0468 1.5294 13.8078 1.85883C12.4722 3.66088 9.52778 3.66088 8.19223 1.85883C7.95349 1.5296 7.57672 1.29072 7.1389 1.19101L6.59446 1.06847C6.30344 1.00069 5.99958 0.983003 5.7005 1.01643C5.40143 1.04986 5.11309 1.13374 4.85224 1.26321C4.28557 1.54629 3.54558 1.93957 3.02113 2.29865C2.86173 2.40867 2.70682 2.52336 2.55669 2.64253C1.51558 3.46519 0.995584 3.87652 1.00003 4.53103C1.00447 5.18555 1.59114 5.63867 2.76447 6.54302L2.97113 6.70167C3.51891 7.12439 3.79335 7.33623 3.93891 7.62122C4.08558 7.9062 4.08558 8.23203 4.08558 8.8818Z" stroke="#231F20" stroke-opacity="0.75" stroke-linecap="round"/>
</svg>
