<svg width="24" height="24" viewBox="0 0 24 24" fill="none" xmlns="http://www.w3.org/2000/svg">
<path d="M19.5259 18.9999H7.45976C4.28128 18.9999 2.69312 18.9999 1.72354 17.7898C-0.114862 15.4932 1.98029 9.38323 3.24887 7.08333C3.67895 9.68331 8.10867 9.61073 9.72174 9.24998C8.64708 7.08441 10.0814 6.36183 10.7986 6H10.8007C13.9998 9.79164 20.841 11.8543 22.5169 15.9872C23.2417 17.7725 21.1768 18.9999 19.5259 18.9999Z" stroke="#231F20" stroke-opacity="0.75" stroke-linecap="round" stroke-linejoin="round"/>
<path d="M0.999939 14.6665C5.51199 16.2156 8.29181 16.6641 11.857 15.5375C12.9371 15.1962 13.4766 15.025 13.8135 15.0478C14.1494 15.0716 14.8373 15.3912 16.2109 16.0325C17.9258 16.832 20.2799 17.2924 22.6665 16.1376M13.4582 9.79149L15.0832 8.1665M15.6248 11.4165L17.2498 9.79149" stroke="#231F20" stroke-opacity="0.75" stroke-linecap="round" stroke-linejoin="round"/>
</svg>
