<!-- <svg width="24" height="24" viewBox="0 0 24 24" fill="none" xmlns="http://www.w3.org/2000/svg">
<path d="M7 21C6.45 21 5.97917 20.8042 5.5875 20.4125C5.19583 20.0208 5 19.55 5 19V6H4V4H9V3H15V4H20V6H19V19C19 19.55 18.8042 20.0208 18.4125 20.4125C18.0208 20.8042 17.55 21 17 21H7ZM17 6H7V19H17V6ZM9 17H11V8H9V17ZM13 17H15V8H13V17Z" fill="#DE2348"/>
</svg> -->
<svg width="25" height="24" viewBox="0 0 25 24" fill="none" xmlns="http://www.w3.org/2000/svg">
<path d="M7.5 21C6.95 21 6.47917 20.8042 6.0875 20.4125C5.69583 20.0208 5.5 19.55 5.5 19V6H4.5V4H9.5V3H15.5V4H20.5V6H19.5V19C19.5 19.55 19.3042 20.0208 18.9125 20.4125C18.5208 20.8042 18.05 21 17.5 21H7.5ZM17.5 6H7.5V19H17.5V6ZM9.5 17H11.5V8H9.5V17ZM13.5 17H15.5V8H13.5V17Z" fill="#DE2348"/>
</svg>
