<svg width="25" height="24" viewBox="0 0 25 24" fill="none" xmlns="http://www.w3.org/2000/svg">
<path d="M20.2228 7.33989C20.1328 7.66989 19.7328 8.49989 19.0528 9.28989C18.6028 17.9699 10.1828 20.7899 4.41276 17.8799C3.62276 16.8299 7.26276 17.2599 8.59276 15.2499C3.56276 12.6799 3.96276 5.80989 4.97276 6.08989C7.34276 9.27989 11.1628 9.56989 11.7828 9.27989C11.7828 8.54989 11.4728 6.95989 13.1928 5.62989C14.1828 4.91989 16.2528 4.28989 18.1228 6.31989C18.4428 6.52989 18.9028 6.61989 19.5928 6.46989C20.0028 6.25989 20.5428 6.39989 20.2628 7.12989L20.2228 7.33989Z" stroke="#231F20" stroke-width="1.5" stroke-linecap="round" stroke-linejoin="round"/>
</svg>
